<svg width="1451" height="510" viewBox="0 0 1451 510" fill="none" xmlns="http://www.w3.org/2000/svg">
<path opacity="0.866281" d="M1286.86 500.066C1265.47 500.066 1242.84 476.585 1219.73 430.058C1219.42 429.623 1219.58 428.754 1219.89 428.536C1220.2 428.102 1220.67 428.319 1220.98 428.754C1244.71 476.151 1267.5 499.414 1289.04 497.675C1306.53 496.37 1318.55 479.412 1331.35 461.584C1343.84 443.973 1356.8 425.71 1375.53 424.405C1396.45 422.884 1418.15 442.886 1440 483.76C1440.31 484.195 1440.16 485.065 1439.84 485.282C1439.53 485.717 1439.06 485.499 1438.75 485.065C1417.21 444.843 1395.98 425.058 1375.68 426.58C1357.58 427.884 1344.78 445.712 1332.6 463.106C1320.27 480.499 1307.47 498.327 1289.36 499.849C1288.42 499.849 1287.64 500.066 1286.86 500.066Z" fill="white"/>
<path fill-rule="evenodd" clip-rule="evenodd" d="M78.3927 509.805C78.5324 510 78.6721 510 78.8118 510C78.9515 510 79.2309 509.805 79.5103 509.611L99.488 478.082C99.6277 477.888 99.6277 477.499 99.6277 477.304C99.6277 476.915 99.488 476.72 99.3483 476.525L77.275 448.111C77.1353 447.917 76.8559 447.917 76.7162 447.917C76.4368 447.917 76.2971 448.111 76.1574 448.306L56.1797 479.834C56.04 480.029 56.04 480.418 56.04 480.612C56.04 481.002 56.1797 481.196 56.3194 481.391L78.3927 509.805ZM78.8801 507.516L57.8193 480.512L76.788 450.4L97.8488 477.598L78.8801 507.516Z" fill="white"/>
<path opacity="0.866281" d="M0.841004 126.535C0.504602 126.535 0 126.066 0 125.598C0 124.895 0.168201 124.192 0.672803 124.192L27.9213 117.633C28.4259 117.633 28.7623 117.867 28.9305 118.57C29.0987 119.273 28.7623 119.975 28.2577 119.975L0.841004 126.535C1.0092 126.535 1.0092 126.535 0.841004 126.535Z" fill="white"/>
<path opacity="0.866281" d="M1430.54 7.5281C1430.41 7.09273 1430.44 6.56959 1430.69 6.17639C1431.09 5.69543 1431.62 5.64984 1431.97 6.21514L1450.54 34.7367C1450.88 35.302 1450.92 36.0428 1450.45 36.306C1450.05 36.787 1449.52 36.8326 1449.17 36.2673L1430.76 7.65803C1430.6 7.74579 1430.54 7.5281 1430.54 7.5281Z" fill="#575757"/>
<path opacity="0.866281" d="M240.293 386.816C239.957 386.816 239.789 386.581 239.621 386.347L225.155 352.847C224.987 352.378 224.987 351.441 225.492 351.207C225.828 350.973 226.501 350.973 226.669 351.676L241.134 385.176C241.303 385.644 241.303 386.581 240.798 386.816C240.63 386.581 240.462 386.816 240.293 386.816Z" fill="white"/>
<path opacity="0.866281" d="M1211.44 218.824L1211.52 218.621L1231.49 191.884C1231.89 191.391 1232.41 191.539 1232.62 191.976C1232.97 192.531 1232.86 193.258 1232.69 193.665L1212.72 220.402C1212.32 220.895 1211.8 220.747 1211.6 220.31C1211.16 219.958 1211.27 219.231 1211.44 218.824Z" fill="white"/>
<ellipse cx="1374.79" cy="257.321" rx="8.45066" ry="11.7958" stroke="white" stroke-width="1.5"/>
<path fill-rule="evenodd" clip-rule="evenodd" d="M151.398 210.022C153.415 212.852 155.905 214.183 158.396 214.183C160.887 214.183 163.496 212.685 165.275 210.022C167.054 207.358 168.122 203.862 168.122 200.033C168.122 196.204 167.173 192.709 165.275 190.045C161.48 184.551 155.194 184.551 151.398 190.045C149.619 192.709 148.552 196.204 148.552 200.033C148.552 203.862 149.501 207.358 151.398 210.022ZM152.345 191.407C153.974 188.954 156.068 187.809 158.279 187.809C160.489 187.809 162.583 188.954 164.329 191.407C165.841 193.696 166.772 196.804 166.772 200.075C166.772 203.346 165.958 206.453 164.329 208.743C160.955 213.485 155.602 213.485 152.345 208.743C150.832 206.453 149.901 203.346 149.901 200.075C149.901 196.804 150.716 193.696 152.345 191.407Z" fill="white"/>
</svg>
