<svg width="1466" height="418" viewBox="0 0 1466 418" fill="none" xmlns="http://www.w3.org/2000/svg">
<path opacity="0.866281" d="M1300.16 410.805C1278.55 410.805 1255.68 393.796 1232.34 360.095C1232.03 359.78 1232.18 359.15 1232.5 358.992C1232.81 358.677 1233.29 358.835 1233.6 359.15C1257.58 393.481 1280.6 410.332 1302.37 409.073C1320.03 408.128 1332.18 395.844 1345.11 382.93C1357.73 370.174 1370.82 356.945 1389.75 356C1410.88 354.897 1432.8 369.386 1454.88 398.993C1455.2 399.308 1455.04 399.938 1454.73 400.096C1454.41 400.411 1453.94 400.253 1453.62 399.938C1431.86 370.804 1410.41 356.472 1389.9 357.575C1371.61 358.52 1358.68 371.433 1346.37 384.032C1333.91 396.631 1320.98 409.545 1302.68 410.647C1301.74 410.647 1300.95 410.805 1300.16 410.805Z" fill="white"/>
<path opacity="0.866281" d="M87.4734 49.4671C67.9568 49.4671 47.3005 34.1316 26.2169 3.74461C25.932 3.46062 26.0744 2.89264 26.3594 2.75064C26.6443 2.46665 27.0716 2.60864 27.3566 2.89264C49.01 33.8476 69.9512 49.0411 89.4678 47.9052C105.423 47.0532 116.392 35.9775 128.074 24.3339C139.47 12.8323 151.294 0.904701 168.389 0.0527292C187.478 -0.941238 207.137 12.1223 227.224 38.8175C227.509 39.1014 227.366 39.6694 227.081 39.8114C226.796 40.0954 226.369 39.9534 226.084 39.6694C206.283 13.5423 186.908 0.762706 168.389 1.61468C151.864 2.46665 140.183 14.1103 129.071 25.4699C117.817 36.8295 106.135 48.4731 89.6103 49.4671C88.898 49.4671 88.1857 49.4671 87.4734 49.4671Z" fill="white"/>
<path fill-rule="evenodd" clip-rule="evenodd" d="M79.203 417.859C79.3442 418 79.4853 418 79.6265 418C79.7676 418 80.0499 417.859 80.3322 417.718L80.3322 417.718L100.516 394.881C100.658 394.74 100.658 394.458 100.658 394.317C100.658 394.035 100.516 393.894 100.375 393.753L78.0739 373.171C77.9327 373.03 77.6504 373.03 77.5093 373.03C77.227 373.03 77.0858 373.171 76.9447 373.312L56.7605 396.15C56.6194 396.291 56.6194 396.573 56.6194 396.714C56.6194 396.996 56.7605 397.136 56.9017 397.277L79.203 417.859ZM79.6954 416.201L58.4169 396.641L77.5816 374.829L98.8601 394.53L79.6954 416.201Z" fill="white"/>
<path opacity="0.866281" d="M0.849697 140.237C0.509818 140.237 0 139.898 0 139.559C0 139.05 0.169939 138.54 0.679758 138.54L28.2099 133.789C28.7198 133.789 29.0596 133.959 29.2296 134.468C29.3995 134.977 29.0596 135.486 28.5498 135.486L0.849697 140.237C1.01964 140.237 1.01964 140.237 0.849697 140.237Z" fill="white"/>
<path opacity="0.866281" d="M1445.33 54.0337C1445.2 53.7184 1445.23 53.3394 1445.48 53.0546C1445.89 52.7062 1446.42 52.6732 1446.77 53.0827L1465.54 73.7423C1465.88 74.1517 1465.92 74.6884 1465.45 74.8791C1465.04 75.2274 1464.5 75.2605 1464.15 74.851L1445.55 54.1279C1445.39 54.1914 1445.33 54.0337 1445.33 54.0337Z" fill="white"/>
<ellipse cx="865.765" cy="373.929" rx="8.53802" ry="8.54432" stroke="white" stroke-width="1.5"/>
</svg>
