<svg width="1246" height="311" viewBox="0 0 1246 311" fill="none" xmlns="http://www.w3.org/2000/svg">
<path opacity="0.866281" d="M1104.38 305.453C1086.03 305.453 1066.61 292.845 1046.79 267.864C1046.52 267.631 1046.66 267.164 1046.92 267.047C1047.19 266.814 1047.59 266.93 1047.86 267.164C1068.22 292.612 1087.78 305.102 1106.26 304.168C1121.26 303.468 1131.58 294.363 1142.56 284.791C1153.27 275.335 1164.39 265.53 1180.47 264.829C1198.41 264.012 1217.03 274.752 1235.78 296.698C1236.05 296.931 1235.92 297.398 1235.65 297.515C1235.38 297.748 1234.98 297.631 1234.71 297.398C1216.23 275.802 1198.01 265.179 1180.6 265.997C1165.06 266.697 1154.08 276.269 1143.63 285.608C1133.05 294.947 1122.07 304.519 1106.53 305.336C1105.72 305.336 1105.05 305.453 1104.38 305.453Z" fill="white"/>
<path opacity="0.866281" d="M74.5099 37.6176C57.9354 37.6176 40.3931 26.2504 22.4878 3.72656C22.2458 3.51605 22.3668 3.09505 22.6088 2.98979C22.8507 2.77929 23.2137 2.88454 23.4556 3.09505C41.8448 26.0399 59.6291 37.3018 76.2036 36.4598C89.7536 35.8283 99.0691 27.6187 108.99 18.988C118.668 10.4627 128.71 1.62152 143.227 0.990012C159.439 0.253251 176.134 9.9364 193.193 29.7237C193.435 29.9342 193.314 30.3552 193.072 30.4605C192.83 30.671 192.467 30.5657 192.225 30.3552C175.409 10.9889 158.955 1.51627 143.227 2.14778C129.194 2.77929 119.273 11.4099 109.837 19.8301C100.279 28.2502 90.3585 36.8808 76.3246 37.6176C75.7197 37.6176 75.1148 37.6176 74.5099 37.6176Z" fill="white"/>
<path fill-rule="evenodd" clip-rule="evenodd" d="M67.486 310.682C67.6058 310.786 67.7257 310.786 67.8456 310.786C67.9654 310.786 68.2052 310.682 68.4449 310.577L85.5863 293.649C85.7062 293.545 85.7062 293.336 85.7062 293.231C85.7062 293.022 85.5863 292.918 85.4665 292.813L66.527 277.557C66.4071 277.453 66.1674 277.453 66.0475 277.453C65.8078 277.453 65.6879 277.557 65.568 277.662L48.4266 294.59C48.3068 294.694 48.3068 294.903 48.3068 295.008C48.3068 295.217 48.4266 295.321 48.5465 295.426L67.486 310.682ZM67.904 309.453L49.8332 294.954L66.1088 278.786L84.1796 293.389L67.904 309.453Z" fill="white"/>
<path opacity="0.866281" d="M0.944261 104.9C0.655619 104.9 0.222656 104.648 0.222656 104.396C0.222656 104.019 0.366977 103.642 0.79994 103.642L24.1799 100.12C24.6129 100.12 24.9016 100.246 25.0459 100.623C25.1902 101 24.9016 101.378 24.4686 101.378L0.944261 104.9C1.08858 104.9 1.08858 104.9 0.944261 104.9Z" fill="white"/>
<path opacity="0.866281" d="M1227.66 41.0028C1227.56 40.769 1227.58 40.4882 1227.8 40.277C1228.14 40.0188 1228.6 39.9943 1228.89 40.2978L1244.83 55.6114C1245.12 55.9149 1245.15 56.3127 1244.75 56.454C1244.41 56.7123 1243.95 56.7367 1243.66 56.4332L1227.85 41.0725C1227.72 41.1197 1227.66 41.0028 1227.66 41.0028Z" fill="white"/>
<ellipse cx="735.474" cy="278.119" rx="7.25091" ry="6.33333" stroke="white" stroke-width="1.5"/>
</svg>
