<svg width="20" height="21" viewBox="0 0 20 21" fill="none" xmlns="http://www.w3.org/2000/svg">
<path fill-rule="evenodd" clip-rule="evenodd" d="M13.164 4.77809C13.4791 4.78244 13.7949 4.78679 14.1119 4.79004C17.5172 4.79004 20 7.22912 20 10.5974V14.9238C20 18.2921 17.5172 20.7312 14.1119 20.7312C12.7478 20.7602 11.3837 20.7699 10.0098 20.7699C8.63592 20.7699 7.25221 20.7602 5.88813 20.7312C2.48283 20.7312 0 18.2921 0 14.9238V10.5974C0 7.22912 2.48283 4.79004 5.89794 4.79004C7.18351 4.77069 8.49853 4.75133 9.83317 4.75133V4.58679C9.83317 3.91894 9.2738 3.37692 8.60648 3.37692H7.63494C6.52601 3.37692 5.62316 2.48647 5.62316 1.40243C5.62316 1.0056 5.95682 0.676514 6.35918 0.676514C6.77134 0.676514 7.09519 1.0056 7.09519 1.40243C7.09519 1.6928 7.34053 1.92509 7.63494 1.92509H8.60648C10.0883 1.93477 11.2954 3.12527 11.3052 4.57711V4.76101C11.9238 4.76101 12.5425 4.76953 13.164 4.77809ZM8.85194 13.4818H7.82152V14.5077C7.82152 14.9046 7.48786 15.2336 7.0855 15.2336C6.67334 15.2336 6.34949 14.9046 6.34949 14.5077V13.4818H5.30926C4.9069 13.4818 4.57324 13.1624 4.57324 12.7558C4.57324 12.359 4.9069 12.0299 5.30926 12.0299H6.34949V11.0136C6.34949 10.6168 6.67334 10.2877 7.0855 10.2877C7.48786 10.2877 7.82152 10.6168 7.82152 11.0136V12.0299H8.85194C9.25429 12.0299 9.58795 12.359 9.58795 12.7558C9.58795 13.1624 9.25429 13.4818 8.85194 13.4818ZM13.0231 11.8458H13.1213C13.5236 11.8458 13.8573 11.5265 13.8573 11.12C13.8573 10.7232 13.5236 10.3942 13.1213 10.3942H13.0231C12.611 10.3942 12.2871 10.7232 12.2871 11.12C12.2871 11.5265 12.611 11.8458 13.0231 11.8458ZM14.7009 15.1753H14.799C15.2014 15.1753 15.535 14.8559 15.535 14.4494C15.535 14.0526 15.2014 13.7235 14.799 13.7235H14.7009C14.2877 13.7235 13.9648 14.0526 13.9648 14.4494C13.9648 14.8559 14.2877 15.1753 14.7009 15.1753Z" fill="white"/>
</svg>
