<svg width="59" height="43" viewBox="0 0 59 43" fill="none" xmlns="http://www.w3.org/2000/svg">
<path d="M13.4693 39.9737C20.6923 40.3488 26.8705 34.9479 27.2414 27.9341C27.4187 24.5802 26.2534 21.3462 23.9603 18.828C21.6722 16.3153 18.5188 14.7965 15.0804 14.5509L14.9805 14.5433C13.7757 14.4453 12.7254 15.3223 12.632 16.4911C12.5387 17.6599 13.439 18.6828 14.6428 18.776L14.7634 18.7852C19.4786 19.119 23.1174 23.1217 22.8749 27.7073C22.6276 32.3832 18.5088 35.9838 13.6935 35.7337C8.8781 35.4836 5.16166 31.476 5.40892 26.8002C5.71777 20.9598 7.43322 15.6449 10.508 11.0029C12.8059 7.53335 15.0503 5.75422 15.0922 5.72132C16.0324 4.99286 16.1876 3.6608 15.4377 2.74315C15.0313 2.24596 14.4423 1.97208 13.8377 1.94067C13.3245 1.91413 12.7999 2.06205 12.3661 2.39612C12.2557 2.48116 9.6324 4.52333 6.94462 8.52758C4.49426 12.1779 1.48143 18.2719 1.04243 26.5734C0.671532 33.5873 6.24621 39.5985 13.4693 39.9737Z" fill="white"/>
<path d="M43.7403 40.9737C50.9633 41.3488 57.1415 35.948 57.5124 28.9341C57.6897 25.5801 56.5244 22.3462 54.2313 19.8277C51.9432 17.3151 48.7898 15.7963 45.3514 15.5506L45.2516 15.543C44.0494 15.4452 42.9963 16.322 42.9031 17.4908C42.8097 18.6596 43.71 19.6826 44.9138 19.7757L45.0345 19.785C49.7496 20.1189 53.3884 24.1216 53.1459 28.7073C52.8986 33.3832 48.7799 36.9838 43.9645 36.7337C39.1491 36.4836 35.4327 32.476 35.6799 27.8001C35.9888 21.9598 37.7042 16.6448 40.779 12.0029C43.0769 8.53336 45.3213 6.75424 45.3632 6.72134C46.3036 5.99276 46.4586 4.66081 45.7087 3.74315C45.3023 3.24586 44.7133 2.97208 44.1087 2.94067C43.5955 2.91402 43.0709 3.06194 42.637 3.396C42.5267 3.48105 39.9033 5.52323 37.2155 9.52749C34.7653 13.1778 31.7525 19.2718 31.3135 27.5733C30.9426 34.5872 36.5172 40.5985 43.7403 40.9737Z" fill="white"/>
</svg>
