<svg width="493" height="494" viewBox="0 0 493 494" fill="none" xmlns="http://www.w3.org/2000/svg">
<mask id="mask0_1_561" style="mask-type:luminance" maskUnits="userSpaceOnUse" x="66" y="66" width="361" height="362">
<ellipse cx="246.5" cy="246.519" rx="180.432" ry="180.483" transform="rotate(30 246.5 246.519)" fill="white"/>
</mask>
<g mask="url(#mask0_1_561)">
<rect x="175.714" y="-38.7598" width="4.51079" height="383.527" transform="rotate(30 175.714 -38.7598)" fill="#2FB574"/>
<rect x="199.154" y="-25.2266" width="4.51079" height="383.527" transform="rotate(30 199.154 -25.2266)" fill="#2FB574"/>
<rect x="220.638" y="-12.8223" width="4.51079" height="383.527" transform="rotate(30 220.638 -12.8223)" fill="#2FB574"/>
<rect x="244.078" y="0.709961" width="4.51079" height="383.527" transform="rotate(30 244.078 0.709961)" fill="#2FB574"/>
<rect x="267.517" y="14.2422" width="4.51079" height="383.527" transform="rotate(30 267.517 14.2422)" fill="#2FB574"/>
<rect x="289.001" y="26.6475" width="4.51079" height="383.527" transform="rotate(30 289.001 26.6475)" fill="#2FB574"/>
<rect x="312.441" y="40.1797" width="4.51079" height="383.527" transform="rotate(30 312.441 40.1797)" fill="#2FB574"/>
<rect x="335.88" y="53.7119" width="4.51079" height="383.527" transform="rotate(30 335.88 53.7119)" fill="#2FB574"/>
<rect x="357.364" y="66.1162" width="4.51079" height="383.527" transform="rotate(30 357.364 66.1162)" fill="#2FB574"/>
<rect x="380.804" y="79.6484" width="4.51079" height="383.527" transform="rotate(30 380.804 79.6484)" fill="#2FB574"/>
<rect x="404.243" y="93.1816" width="4.51079" height="383.527" transform="rotate(30 404.243 93.1816)" fill="#2FB574"/>
<rect x="423.775" y="104.458" width="4.51079" height="383.527" transform="rotate(30 423.775 104.458)" fill="#2FB574"/>
<rect x="449.167" y="119.118" width="4.51079" height="383.527" transform="rotate(30 449.167 119.118)" fill="#2FB574"/>
<rect x="470.652" y="131.523" width="4.51079" height="383.527" transform="rotate(30 470.652 131.523)" fill="#2FB574"/>
<rect x="494.092" y="145.056" width="4.51079" height="383.527" transform="rotate(30 494.092 145.056)" fill="#2FB574"/>
</g>
</svg>
