<svg width="65" height="56" viewBox="0 0 65 56" fill="none" xmlns="http://www.w3.org/2000/svg">
<path d="M47.6344 2.82393C47.4529 2.67353 47.2732 2.89641 47.3481 3.05143C47.577 3.52793 47.4808 3.84084 47.1002 4.27162C46.264 5.22072 44.301 6.03556 43.474 6.57321C43.0403 6.85429 42.6503 7.25286 42.2585 7.57253C41.6413 8.07441 40.8694 8.31431 40.4914 8.35462C40.3047 8.37518 40.1221 8.31193 40.106 8.126C40.0669 7.6651 41.0297 7.00844 41.7657 6.53971C42.617 5.99816 42.9788 5.47755 43.2096 4.75474C43.3842 4.20931 43.2653 3.62022 42.7586 3.14634C42.5856 2.98501 42.3935 3.19775 42.4588 3.3566C42.6609 3.84623 42.5467 4.1517 42.1418 4.56096C41.2508 5.46036 39.2449 6.16065 38.3886 6.6486C37.5533 7.12512 36.6145 7.75149 36.6407 8.70961C36.6517 9.11412 36.8327 9.47329 37.1087 9.77721C37.2196 9.8995 37.1744 10.0969 37.0217 10.1616C36.1815 10.5124 35.0889 10.5133 34.9943 10.8099C34.8862 11.1474 36.3575 12.2381 37.4555 12.4231C38.5645 12.6091 39.2748 12.3575 39.759 12.0861C39.2692 12.429 38.507 12.8514 37.1592 12.6852C36.8275 12.6443 36.4607 12.5267 36.1072 12.3714C35.7997 12.2355 35.4386 12.3228 35.231 12.5877C34.8884 13.0254 34.5809 13.4126 34.3244 13.7024C33.2615 14.9019 30.5834 16.0279 29.0877 17.6247C27.2507 19.5867 27.0838 22.0615 25.2372 23.9511C23.6501 25.5756 20.886 26.857 18.5131 29.186C17.8504 29.8367 17.3014 30.4818 16.8153 31.099C15.8633 32.3085 12.8629 33.3496 13.1939 31.6011C13.4893 30.043 16.0608 28.6419 17.1123 27.9626C18.2601 27.2213 19.8116 26.2775 19.8911 24.865C19.9708 23.4386 18.7819 21.7107 17.6622 20.9433C16.7605 20.3241 15.9534 19.96 15.1309 20.005C14.5139 20.0388 13.1214 20.5983 13.2079 20.8622C13.2954 21.1332 14.876 20.4817 15.0644 21.6181C15.1878 22.3573 15.6325 23.276 16.6806 23.0679C17.7024 22.8642 18.1602 22.5094 18.9695 23.5527C19.4215 24.1367 19.5474 24.979 19.1695 25.6589C18.6155 26.657 16.481 27.7951 15.1223 28.583C13.9146 29.2825 11.9767 30.717 12.1274 32.396C12.2523 33.787 14.0439 33.7465 15.0954 33.9461C15.3283 33.9894 15.3997 34.1581 15.3671 34.4673C15.1914 36.1568 15.331 37.5616 16.369 39.8502C16.9358 41.1008 17.14 41.7645 17.3328 43.1559C17.5454 44.6877 16.6541 45.6369 16.6674 46.7429C16.6725 47.2327 16.8052 47.7204 16.9366 48.5271C17.0039 48.9395 16.9988 49.2672 16.8869 49.6821C16.7884 50.0455 16.5834 50.2757 16.647 50.5156C16.7087 50.7454 16.8921 50.9567 16.9888 51.172C17.0676 51.3481 17.1212 51.5644 17.0907 51.8921C17.0514 52.3059 17.0888 53.066 17.2848 53.335C17.5511 53.7 18.5464 53.3981 19.0015 53.2591C20.0431 52.9416 20.5354 52.6 20.195 52.0607C19.6668 51.2225 18.7964 51.0484 18.3533 50.5529C17.8895 50.0336 18.3602 49.4146 18.9225 47.5584C19.3172 46.2572 21.3129 45.0315 22.7707 42.9057C24.2341 40.7699 24.6689 39.1267 26.8722 37.7885C27.412 37.4606 28.1749 37.2445 29.0581 37.0919C25.9049 37.9106 24.9233 40.1771 24.5928 40.8813C24.368 41.3599 24.3657 41.9112 24.6928 42.3284C25.0272 42.7561 25.3997 43.0531 25.958 43.4643C26.9322 44.1831 28.0172 44.6101 28.9506 45.0369C29.7364 45.3965 30.1774 45.7466 30.4394 46.0462C30.7585 46.4106 30.6693 46.5912 30.8654 46.8242C31.1261 47.1337 31.3279 46.8778 31.5403 47.2321C31.7521 47.5844 31.4973 48.2252 31.8703 48.7815C32.0489 49.0492 32.9875 48.8688 33.4367 48.7314C34.4646 48.418 34.9333 48.1331 34.5196 47.6585C33.5213 46.5158 32.7782 46.4296 32.2095 45.7429C31.5199 44.9104 30.9153 44.1442 30.5433 43.5951C29.9167 42.6733 29.9807 40.7537 30.3841 39.682C30.7982 38.5817 31.9192 36.8295 33.6155 36.6473C34.3598 36.5669 35.3505 36.6307 36.9961 36.2493C37.3996 36.155 37.1492 35.8446 36.853 35.5551C35.1375 33.8844 34.2546 31.1322 34.8117 29.3167C34.5079 31.5762 36.0052 34.1799 38.0582 35.4864C38.847 35.9871 42.0587 37.2068 43.7992 38.4222C44.2897 38.7642 44.5654 39.2811 44.9385 39.562C45.2485 39.7935 45.7526 39.9208 46.12 40.0837C46.7233 40.3515 47.089 40.7087 47.341 41.061C47.6452 41.4869 47.5436 41.5451 47.7564 41.7955C48.0371 42.1298 48.2886 41.9612 48.4848 42.2778C48.7175 42.6547 48.552 43.4855 48.9432 44.1551C49.1187 44.4556 50.193 44.2069 50.678 44.0581C51.7887 43.7194 52.3982 43.3585 51.9751 42.8263C50.9888 41.5827 50.0684 41.2771 49.3708 40.6132C48.7541 40.0273 48.3288 39.7055 47.9264 39.1133C47.7092 38.7933 47.6559 38.0803 47.3573 37.5902C46.8559 36.7675 46.3375 36.566 45.9825 35.9113C45.1883 34.4442 45.2228 31.0285 44.1289 28.341C44.7872 29.1604 45.1058 30.2896 45.2856 31.4836C45.3256 31.7515 45.5975 31.7506 45.8287 31.6101C46.5364 31.1792 48.0939 30.0198 49.677 28.5448C50.2643 27.9987 50.5565 28.892 50.6 29.2627C50.6283 29.5086 50.6957 30.0194 50.6588 30.3542C50.6244 30.6682 50.4535 30.9065 50.4596 31.0657C50.4724 31.4072 50.7027 31.5254 50.6173 31.9442C50.5566 32.2372 50.341 32.4748 50.0082 32.4956C49.4903 32.528 48.9124 32.8342 49.0223 33.6758C49.084 34.1492 49.4198 35.0573 49.9911 35.9635C50.2474 36.3705 50.864 36.4004 51.0375 36.084C51.456 35.5723 51.5705 34.4726 51.6284 34.0681C51.7295 33.3725 51.7348 32.8457 51.9397 31.5947C52.0221 31.0962 52.0594 30.4182 52.0738 29.7955C52.0983 28.6701 52.1194 28.234 52.093 27.6021C52.0756 27.2048 52.0023 26.6374 52.1054 26.3193C52.2292 25.9337 51.9956 25.2743 51.6206 25.0088C51.3156 24.7906 50.8824 24.7178 50.3522 24.7845C49.7749 24.8565 49.1016 24.4502 48.5028 24.2997C48.2376 24.233 47.9916 24.4678 48.0483 24.7351C48.3033 25.922 47.7329 27.986 47.0686 29.3689C47.9577 27.141 47.7861 24.9799 46.8643 22.5155C46.6184 21.8576 46.085 20.9361 45.4147 20.1044C44.863 19.418 44.1397 18.8951 43.3325 18.5417C42.0866 17.9952 40.857 16.4582 40.8023 15.1377C41.4588 16.9425 42.2055 17.5603 42.9357 17.9256C44.202 18.5603 45.0899 18.3258 45.8568 18.6899C46.4367 18.9645 46.5031 19.7987 47.0183 19.7787C47.5458 19.7573 47.6505 19.3466 48.1128 19.2213C48.4522 19.1287 50.2016 18.355 50.4011 17.2378C50.5292 16.5185 50.1255 15.5952 49.3703 15.4204C49.0571 15.3487 48.7443 14.3777 48.3974 13.7979C47.9543 13.0556 47.2819 12.1694 47.3742 11.4436C47.4506 10.8378 47.331 9.26515 46.3631 8.25543C46.2353 8.12219 46.0984 8.00856 45.9562 7.91339C45.7197 7.75575 45.6636 7.429 45.841 7.20572C46.0833 6.89998 46.4612 6.59071 46.8396 6.26859C47.6083 5.61452 47.9896 5.13905 48.1778 4.40432C48.3209 3.84901 48.1683 3.26764 47.6344 2.82393Z" fill="#2FB574"/>
<path d="M51.8625 21.5199C49.7781 24.8058 47.5105 28.4257 45.4252 31.7119C45.4267 31.7135 45.4295 31.7159 45.4311 31.7176C45.4708 31.7483 45.5106 31.7833 45.549 31.824C45.59 31.8629 45.6251 31.9035 45.6563 31.9452C45.9982 32.3443 46.2645 32.8036 46.4454 33.293C48.7067 29.7279 51.1518 25.8306 53.4131 22.2655C52.8514 22.1222 52.3199 21.8684 51.8625 21.5199Z" fill="white"/>
<path d="M28.9357 28.2205C29.0696 28.8433 29.052 29.4838 28.9008 30.0913C32.1041 31.5908 35.6414 33.2736 38.8449 34.7741C38.8142 34.1784 38.9097 33.5798 39.1414 33.0272C35.8507 31.4854 32.2261 29.7613 28.9357 28.2205Z" fill="white"/>
<path d="M14.5476 41.9975C13.7662 41.7001 12.8766 41.6344 11.9498 41.8516C9.69764 42.3791 8.67899 44.8491 9.16346 46.9211C9.69008 49.1704 12.1631 50.1849 14.2381 49.6996C16.4 49.1932 17.4217 46.897 17.0712 44.8813C17.0681 44.8017 17.0558 44.7195 17.0241 44.6292C17.0031 44.5389 16.9696 44.464 16.9307 44.3959C16.6973 43.8243 16.3754 43.3305 15.9804 42.931C18.1993 39.4343 20.5093 35.7713 22.7272 32.275C22.2454 31.923 21.842 31.4656 21.564 30.9187C19.2559 34.5558 16.8558 38.3604 14.5476 41.9975ZM10.809 46.4413C9.79192 43.5451 14.368 42.2278 15.3786 45.109C16.0779 48.0957 11.8245 49.3359 10.809 46.4413Z" fill="white"/>
<path d="M28.8666 27.5766C28.8536 27.5465 28.8399 27.5177 28.8255 27.4901C28.8113 27.4487 28.7951 27.4079 28.7735 27.3665C27.826 25.5005 25.5895 24.6436 23.6328 25.3962C21.6428 26.1618 20.6639 28.329 21.1911 30.344C21.2593 30.6069 21.3554 30.8531 21.4727 31.0847C21.7508 31.6316 22.1539 32.088 22.6357 32.44C23.7027 33.2196 25.1501 33.4838 26.4524 33.0617C27.8088 32.6218 28.7433 31.4831 29.0682 30.1822C29.2187 29.576 29.237 28.9342 29.1021 28.3117C29.0482 28.0616 28.9713 27.8161 28.8666 27.5766ZM25.9734 31.4191C24.6475 31.9381 23.2819 31.1481 22.8369 29.8652C22.4344 28.7097 23.146 27.5438 24.1581 27.02C25.3436 26.4043 26.6845 27.1242 27.2706 28.1828C27.7556 29.454 27.3213 30.8917 25.9734 31.4191Z" fill="white"/>
<path d="M45.6402 31.6578C45.6016 31.6161 45.563 31.5818 45.5233 31.551C45.5205 31.5486 45.5189 31.547 45.5161 31.5446C43.8504 30.0775 41.4144 30.1598 39.8088 31.7134C39.437 32.0728 39.1612 32.4889 38.9747 32.9351C38.7432 33.4887 38.6477 34.0873 38.6785 34.683C38.7319 35.7487 39.1858 36.8045 39.9757 37.5632C41.5409 39.067 43.9638 38.889 45.5411 37.5396C46.8521 36.4171 47.0966 34.6335 46.5375 33.1265C46.3567 32.637 46.0901 32.1768 45.7485 31.7787C45.7163 31.7372 45.6812 31.6966 45.6402 31.6578ZM44.4243 36.2407C43.6168 37.1031 42.1951 37.1374 41.2841 36.432C40.2291 35.6139 40.0891 34.0695 40.9165 33.0393C41.823 31.9098 43.4619 31.9519 44.4617 32.9004C45.3625 33.8725 45.315 35.2895 44.4243 36.2407Z" fill="white"/>
<path d="M58.2085 17.1824C57.5499 15.1379 55.3536 14.0881 53.3289 14.5461C53.2846 14.5537 53.2388 14.5639 53.1913 14.5788C53.1432 14.5918 53.1001 14.6075 53.0586 14.6249C51.0267 15.3487 49.9303 17.3595 50.3576 19.4715C50.5444 20.3955 51.0699 21.1519 51.7712 21.6866C52.2276 22.0353 52.7591 22.2891 53.3209 22.4325C54.1375 22.6402 55.0187 22.6152 55.8232 22.3054C57.8636 21.5199 58.8687 19.2286 58.2085 17.1824ZM55.2992 20.6823C53.9181 21.3974 52.3576 20.3455 52.0031 18.9917C51.6873 17.7812 52.5435 16.5849 53.6702 16.2214C54.8657 15.9088 56.1127 16.492 56.564 17.6619C57.0309 18.8748 56.4019 20.1098 55.2992 20.6823Z" fill="white"/>
</svg>
