<svg width="558" height="558" viewBox="0 0 558 558" fill="none" xmlns="http://www.w3.org/2000/svg">
<mask id="mask0_2_1309" style="mask-type:luminance" maskUnits="userSpaceOnUse" x="74" y="74" width="409" height="409">
<ellipse cx="278.504" cy="278.525" rx="203.858" ry="203.916" transform="rotate(30 278.504 278.525)" fill="white"/>
</mask>
<g mask="url(#mask0_2_1309)">
<rect x="198.528" y="-43.7915" width="5.09644" height="433.321" transform="rotate(30 198.528 -43.7915)" fill="#2FB574" fill-opacity="0.3"/>
<rect x="225.011" y="-28.502" width="5.09644" height="433.321" transform="rotate(30 225.011 -28.502)" fill="#2FB574" fill-opacity="0.3"/>
<rect x="249.284" y="-14.4868" width="5.09644" height="433.321" transform="rotate(30 249.284 -14.4868)" fill="#2FB574" fill-opacity="0.3"/>
<rect x="275.767" y="0.802246" width="5.09644" height="433.321" transform="rotate(30 275.767 0.802246)" fill="#2FB574" fill-opacity="0.3"/>
<rect x="302.25" y="16.0916" width="5.09644" height="433.321" transform="rotate(30 302.25 16.0916)" fill="#2FB574" fill-opacity="0.3"/>
<rect x="326.523" y="30.1072" width="5.09644" height="433.321" transform="rotate(30 326.523 30.1072)" fill="#2FB574" fill-opacity="0.3"/>
<rect x="353.006" y="45.3967" width="5.09644" height="433.321" transform="rotate(30 353.006 45.3967)" fill="#2FB574" fill-opacity="0.3"/>
<rect x="379.488" y="60.6858" width="5.09644" height="433.321" transform="rotate(30 379.488 60.6858)" fill="#2FB574" fill-opacity="0.3"/>
<rect x="403.762" y="74.7007" width="5.09644" height="433.321" transform="rotate(30 403.762 74.7007)" fill="#2FB574" fill-opacity="0.3"/>
<rect x="430.245" y="89.9905" width="5.09644" height="433.321" transform="rotate(30 430.245 89.9905)" fill="#2FB574" fill-opacity="0.3"/>
<rect x="456.727" y="105.28" width="5.09644" height="433.321" transform="rotate(30 456.727 105.28)" fill="#2FB574" fill-opacity="0.3"/>
<rect x="478.796" y="118.02" width="5.09644" height="433.321" transform="rotate(30 478.796 118.02)" fill="#2FB574" fill-opacity="0.3"/>
<rect x="507.484" y="134.584" width="5.09644" height="433.321" transform="rotate(30 507.484 134.584)" fill="#2FB574" fill-opacity="0.3"/>
<rect x="531.759" y="148.599" width="5.09644" height="433.321" transform="rotate(30 531.759 148.599)" fill="#2FB574" fill-opacity="0.3"/>
<rect x="558.241" y="163.888" width="5.09644" height="433.321" transform="rotate(30 558.241 163.888)" fill="#2FB574" fill-opacity="0.3"/>
</g>
</svg>
