<svg width="280" height="280" viewBox="0 0 280 280" fill="none" xmlns="http://www.w3.org/2000/svg">
<mask id="mask0_1_732" style="mask-type:luminance" maskUnits="userSpaceOnUse" x="37" y="37" width="206" height="206">
<ellipse cx="139.723" cy="139.734" rx="102.274" ry="102.303" transform="rotate(30 139.723 139.734)" fill="white"/>
</mask>
<g mask="url(#mask0_1_732)">
<rect x="99.6001" y="-21.97" width="2.55684" height="217.393" transform="rotate(30 99.6001 -21.97)" fill="#2FB574"/>
<rect x="112.886" y="-14.2991" width="2.55684" height="217.393" transform="rotate(30 112.886 -14.2991)" fill="#2FB574"/>
<rect x="125.064" y="-7.26782" width="2.55684" height="217.393" transform="rotate(30 125.064 -7.26782)" fill="#2FB574"/>
<rect x="138.35" y="0.402344" width="2.55684" height="217.393" transform="rotate(30 138.35 0.402344)" fill="#2FB574"/>
<rect x="151.636" y="8.073" width="2.55684" height="217.393" transform="rotate(30 151.636 8.073)" fill="#2FB574"/>
<rect x="163.814" y="15.1042" width="2.55684" height="217.393" transform="rotate(30 163.814 15.1042)" fill="#2FB574"/>
<rect x="177.1" y="22.7751" width="2.55684" height="217.393" transform="rotate(30 177.1 22.7751)" fill="#2FB574"/>
<rect x="190.386" y="30.4453" width="2.55684" height="217.393" transform="rotate(30 190.386 30.4453)" fill="#2FB574"/>
<rect x="202.564" y="37.4766" width="2.55684" height="217.393" transform="rotate(30 202.564 37.4766)" fill="#2FB574"/>
<rect x="215.85" y="45.1472" width="2.55684" height="217.393" transform="rotate(30 215.85 45.1472)" fill="#2FB574"/>
<rect x="229.136" y="52.8171" width="2.55684" height="217.393" transform="rotate(30 229.136 52.8171)" fill="#2FB574"/>
<rect x="240.207" y="59.2097" width="2.55684" height="217.393" transform="rotate(30 240.207 59.2097)" fill="#2FB574"/>
<rect x="254.6" y="67.5195" width="2.55684" height="217.393" transform="rotate(30 254.6 67.5195)" fill="#2FB574"/>
<rect x="266.779" y="74.5508" width="2.55684" height="217.393" transform="rotate(30 266.779 74.5508)" fill="#2FB574"/>
<rect x="280.065" y="82.2212" width="2.55684" height="217.393" transform="rotate(30 280.065 82.2212)" fill="#2FB574"/>
</g>
</svg>
