<svg width="79" height="37" viewBox="0 0 79 37" fill="none" xmlns="http://www.w3.org/2000/svg">
<path d="M18.6219 3.02637C10.2862 3.02637 3.49365 9.81893 3.49365 18.1546C3.49365 26.4902 10.2862 33.2828 18.6219 33.2828C26.9575 33.2828 33.7501 26.4902 33.7501 18.1546C33.7501 9.81893 26.9575 3.02637 18.6219 3.02637ZM25.8531 14.6751L17.2754 23.2528C17.0637 23.4646 16.7762 23.5856 16.4736 23.5856C16.1711 23.5856 15.8837 23.4646 15.6719 23.2528L11.3906 18.9715C10.9519 18.5328 10.9519 17.8066 11.3906 17.3679C11.8293 16.9292 12.5554 16.9292 12.9942 17.3679L16.4736 20.8474L24.2495 13.0715C24.6883 12.6328 25.4144 12.6328 25.8531 13.0715C26.2919 13.5102 26.2919 14.2212 25.8531 14.6751Z" fill="#2FB574"/>
<path d="M60.3755 3.02637C52.0399 3.02637 45.2473 9.81893 45.2473 18.1546C45.2473 26.4902 52.0399 33.2828 60.3755 33.2828C68.7112 33.2828 75.5037 26.4902 75.5037 18.1546C75.5037 9.81893 68.7112 3.02637 60.3755 3.02637ZM65.4586 21.6341C65.8973 22.0728 65.8973 22.7989 65.4586 23.2376C65.2317 23.4646 64.9442 23.5705 64.6568 23.5705C64.3694 23.5705 64.0819 23.4646 63.855 23.2376L60.3755 19.7582L56.896 23.2376C56.6691 23.4646 56.3817 23.5705 56.0942 23.5705C55.8068 23.5705 55.5194 23.4646 55.2924 23.2376C54.8537 22.7989 54.8537 22.0728 55.2924 21.6341L58.7719 18.1546L55.2924 14.6751C54.8537 14.2364 54.8537 13.5102 55.2924 13.0715C55.7312 12.6328 56.4573 12.6328 56.896 13.0715L60.3755 16.551L63.855 13.0715C64.2937 12.6328 65.0199 12.6328 65.4586 13.0715C65.8973 13.5102 65.8973 14.2364 65.4586 14.6751L61.9791 18.1546L65.4586 21.6341Z" fill="#FB6D52"/>
</svg>
