<svg width="65" height="56" viewBox="0 0 65 56" fill="none" xmlns="http://www.w3.org/2000/svg">
<path d="M47.6344 2.82442C47.4529 2.67402 47.2732 2.89689 47.3481 3.05192C47.577 3.52842 47.4808 3.84133 47.1002 4.2721C46.264 5.2212 44.301 6.03605 43.474 6.57369C43.0402 6.85478 42.6503 7.25335 42.2585 7.57302C41.6413 8.0749 40.8693 8.3148 40.4914 8.35511C40.3047 8.37567 40.1221 8.31242 40.106 8.12649C40.0669 7.66559 41.0297 7.00892 41.7656 6.5402C42.6169 5.99865 42.9788 5.47804 43.2096 4.75523C43.3841 4.2098 43.2653 3.62071 42.7586 3.14683C42.5856 2.9855 42.3935 3.19824 42.4588 3.35709C42.6609 3.84672 42.5466 4.15219 42.1418 4.56145C41.2508 5.46085 39.2449 6.16114 38.3886 6.64909C37.5533 7.12561 36.6144 7.75198 36.6407 8.7101C36.6517 9.1146 36.8327 9.47378 37.1087 9.77769C37.2196 9.89998 37.1744 10.0974 37.0217 10.1621C36.1815 10.5129 35.0889 10.5138 34.9943 10.8104C34.8862 11.1479 36.3574 12.2386 37.4555 12.4235C38.5645 12.6096 39.2748 12.358 39.759 12.0865C39.2692 12.4295 38.507 12.8519 37.1592 12.6857C36.8275 12.6448 36.4607 12.5272 36.1072 12.3719C35.7997 12.236 35.4386 12.3233 35.231 12.5882C34.8884 13.0259 34.5809 13.4131 34.3244 13.7029C33.2615 14.9023 30.5834 16.0284 29.0877 17.6251C27.2507 19.5872 27.0838 22.062 25.2372 23.9516C23.6501 25.5761 20.886 26.8575 18.5131 29.1865C17.8504 29.8372 17.3014 30.4823 16.8153 31.0995C15.8633 32.309 12.8628 33.3501 13.1939 31.6016C13.4893 30.0434 16.0608 28.6424 17.1123 27.9631C18.2601 27.2218 19.8116 26.278 19.8911 24.8655C19.9708 23.4391 18.7819 21.7112 17.6622 20.9438C16.7605 20.3246 15.9533 19.9605 15.1309 20.0055C14.5139 20.0393 13.1214 20.5988 13.2079 20.8627C13.2953 21.1337 14.876 20.4822 15.0644 21.6186C15.1878 22.3578 15.6325 23.2765 16.6805 23.0684C17.7024 22.8647 18.1602 22.5099 18.9695 23.5531C19.4215 24.1372 19.5474 24.9795 19.1695 25.6594C18.6155 26.6575 16.481 27.7956 15.1223 28.5835C13.9146 29.283 11.9767 30.7175 12.1273 32.3965C12.2523 33.7875 14.0439 33.747 15.0954 33.9466C15.3283 33.9899 15.3997 34.1586 15.3671 34.4678C15.1914 36.1572 15.331 37.562 16.3689 39.8507C16.9358 41.1013 17.14 41.765 17.3328 43.1564C17.5454 44.6882 16.6541 45.6374 16.6673 46.7434C16.6725 47.2332 16.8052 47.7209 16.9366 48.5276C17.0039 48.94 16.9988 49.2677 16.8868 49.6826C16.7884 50.0459 16.5834 50.2762 16.647 50.5161C16.7087 50.7459 16.8921 50.9571 16.9887 51.1725C17.0676 51.3486 17.1212 51.5649 17.0907 51.8926C17.0514 52.3064 17.0888 53.0664 17.2848 53.3355C17.5511 53.7005 18.5464 53.3986 19.0015 53.2596C20.043 52.9421 20.5354 52.6005 20.195 52.0612C19.6668 51.223 18.7964 51.0489 18.3532 50.5533C17.8895 50.0341 18.3602 49.415 18.9225 47.5589C19.3172 46.2577 21.3128 45.032 22.7707 42.9062C24.2341 40.7704 24.6689 39.1271 26.8722 37.789C27.4119 37.4611 28.1749 37.245 29.0581 37.0924C25.9049 37.9111 24.9233 40.1776 24.5928 40.8818C24.368 41.3603 24.3657 41.9117 24.6928 42.3289C25.0272 42.7566 25.3997 43.0536 25.958 43.4648C26.9321 44.1836 28.0171 44.6106 28.9506 45.0374C29.7364 45.397 30.1774 45.7471 30.4394 46.0466C30.7585 46.4111 30.6693 46.5917 30.8654 46.8247C31.1261 47.1341 31.3279 46.8783 31.5403 47.2326C31.752 47.5849 31.4973 48.2257 31.8702 48.782C32.0489 49.0497 32.9875 48.8693 33.4367 48.7319C34.4646 48.4185 34.9333 48.1335 34.5196 47.659C33.5213 46.5162 32.7782 46.43 32.2095 45.7434C31.5199 44.9109 30.9153 44.1447 30.5433 43.5955C29.9166 42.6738 29.9807 40.7542 30.3841 39.6825C30.7982 38.5822 31.9192 36.83 33.6155 36.6478C34.3598 36.5674 35.3505 36.6312 36.9961 36.2498C37.3996 36.1555 37.1492 35.8451 36.853 35.5556C35.1375 33.8849 34.2546 31.1327 34.8117 29.3172C34.5079 31.5767 36.0052 34.1804 38.0582 35.4869C38.847 35.9876 42.0587 37.2072 43.7992 38.4227C44.2897 38.7647 44.5654 39.2816 44.9385 39.5625C45.2485 39.794 45.7526 39.9213 46.1199 40.0842C46.7233 40.352 47.089 40.7092 47.341 41.0615C47.6452 41.4874 47.5436 41.5456 47.7564 41.796C48.0371 42.1303 48.2886 41.9617 48.4847 42.2783C48.7175 42.6552 48.552 43.486 48.9432 44.1556C49.1186 44.456 50.193 44.2074 50.678 44.0586C51.7886 43.7199 52.3982 43.359 51.9751 42.8268C50.9888 41.5831 50.0684 41.2775 49.3707 40.6137C48.7541 40.0278 48.3288 39.706 47.9264 39.1138C47.7091 38.7938 47.6559 38.0808 47.3573 37.5907C46.8558 36.768 46.3375 36.5664 45.9825 35.9117C45.1883 34.4447 45.2228 31.029 44.1289 28.3415C44.7872 29.1609 45.1058 30.2901 45.2856 31.4841C45.3256 31.752 45.5974 31.7511 45.8286 31.6106C46.5364 31.1797 48.0939 30.0203 49.677 28.5453C50.2643 27.9992 50.5565 28.8925 50.6 29.2631C50.6283 29.509 50.6957 30.0199 50.6588 30.3547C50.6244 30.6687 50.4535 30.907 50.4596 31.0662C50.4724 31.4077 50.7027 31.5259 50.6173 31.9447C50.5566 32.2377 50.341 32.4753 50.0082 32.4961C49.4903 32.5285 48.9124 32.8347 49.0222 33.6763C49.084 34.1497 49.4197 35.0578 49.9911 35.9639C50.2474 36.371 50.864 36.4009 51.0375 36.0845C51.4559 35.5728 51.5705 34.473 51.6284 34.0686C51.7295 33.373 51.7347 32.8462 51.9397 31.5951C52.022 31.0967 52.0594 30.4187 52.0738 29.796C52.0983 28.6706 52.1194 28.2345 52.0929 27.6026C52.0756 27.2053 52.0023 26.6379 52.1054 26.3197C52.2292 25.9342 51.9956 25.2748 51.6206 25.0093C51.3155 24.7911 50.8824 24.7183 50.3522 24.785C49.7749 24.857 49.1015 24.4507 48.5028 24.3002C48.2376 24.2335 47.9916 24.4683 48.0483 24.7356C48.3033 25.9225 47.7328 27.9865 47.0686 29.3694C47.9577 27.1415 47.7861 24.9804 46.8643 22.516C46.6184 21.8581 46.085 20.9366 45.4147 20.1049C44.863 19.4185 44.1397 18.8956 43.3324 18.5421C42.0866 17.9957 40.857 16.4587 40.8023 15.1382C41.4588 16.943 42.2055 17.5608 42.9357 17.9261C44.202 18.5608 45.0899 18.3262 45.8568 18.6903C46.4367 18.965 46.5031 19.7991 47.0183 19.7792C47.5458 19.7578 47.6505 19.347 48.1128 19.2218C48.4522 19.1292 50.2016 18.3554 50.4011 17.2383C50.5292 16.519 50.1255 15.5957 49.3703 15.4209C49.0571 15.3491 48.7443 14.3782 48.3974 13.7984C47.9543 13.0561 47.2819 12.1699 47.3742 11.4441C47.4506 10.8383 47.331 9.26564 46.3631 8.25591C46.2353 8.12268 46.0983 8.00905 45.9562 7.91388C45.7196 7.75624 45.6636 7.42949 45.841 7.20621C46.0833 6.90047 46.4612 6.5912 46.8395 6.26908C47.6083 5.615 47.9896 5.13954 48.1778 4.40481C48.3208 3.84949 48.1683 3.26813 47.6344 2.82442Z" fill="#2FB574"/>
<path d="M51.8625 21.5204C49.7781 24.8063 47.5105 28.4262 45.4252 31.7124C45.4267 31.714 45.4295 31.7164 45.4311 31.718C45.4708 31.7488 45.5106 31.7838 45.549 31.8245C45.5899 31.8634 45.6251 31.904 45.6563 31.9457C45.9982 32.3448 46.2645 32.8041 46.4453 33.2935C48.7067 29.7284 51.1518 25.8311 53.4131 22.266C52.8513 22.1227 52.3199 21.8689 51.8625 21.5204Z" fill="white"/>
<path d="M28.9357 28.221C29.0696 28.8438 29.052 29.4843 28.9008 30.0918C32.1041 31.5913 35.6414 33.2741 38.8449 34.7746C38.8142 34.1789 38.9097 33.5803 39.1415 33.0277C35.8507 31.4859 32.2262 29.7618 28.9357 28.221Z" fill="white"/>
<path d="M14.5477 41.997C13.7663 41.6996 12.8766 41.6339 11.9498 41.8511C9.69765 42.3786 8.67901 44.8486 9.16348 46.9206C9.6901 49.1699 12.1632 50.1845 14.2381 49.6991C16.4 49.1927 17.4217 46.8965 17.0712 44.8808C17.0681 44.8012 17.0558 44.719 17.0242 44.6287C17.0031 44.5384 16.9696 44.4635 16.9307 44.3954C16.6974 43.8238 16.3754 43.33 15.9805 42.9305C18.1993 39.4338 20.5094 35.7708 22.7272 32.2745C22.2455 31.9225 21.8421 31.4651 21.564 30.9182C19.2559 34.5553 16.8558 38.36 14.5477 41.997ZM10.809 46.4408C9.79193 43.5446 14.3681 42.2273 15.3786 45.1085C16.0779 48.0952 11.8245 49.3354 10.809 46.4408Z" fill="white"/>
<path d="M28.8666 27.5771C28.8536 27.547 28.8399 27.5182 28.8255 27.4906C28.8113 27.4492 28.7951 27.4084 28.7736 27.367C27.826 25.501 25.5895 24.644 23.6328 25.3967C21.6428 26.1623 20.664 28.3294 21.1911 30.3445C21.2593 30.6074 21.3555 30.8536 21.4728 31.0852C21.7508 31.6321 22.1539 32.0885 22.6357 32.4405C23.7027 33.2201 25.1501 33.4843 26.4524 33.0622C27.8088 32.6223 28.7433 31.4836 29.0682 30.1827C29.2187 29.5765 29.237 28.9347 29.1021 28.3122C29.0482 28.0621 28.9714 27.8166 28.8666 27.5771ZM25.9735 31.4196C24.6475 31.9386 23.282 31.1486 22.8369 29.8657C22.4344 28.7102 23.146 27.5443 24.1581 27.0205C25.3436 26.4048 26.6845 27.1247 27.2706 28.1833C27.7556 29.4545 27.3213 30.8922 25.9735 31.4196Z" fill="white"/>
<path d="M45.6402 31.6573C45.6016 31.6156 45.563 31.5813 45.5233 31.5505C45.5205 31.5481 45.519 31.5465 45.5162 31.5441C43.8505 30.077 41.4145 30.1593 39.8088 31.7129C39.4371 32.0723 39.1613 32.4884 38.9747 32.9346C38.7433 33.4882 38.6478 34.0868 38.6785 34.6825C38.7319 35.7482 39.1859 36.804 39.9758 37.5627C41.541 39.0665 43.9639 38.8885 45.5412 37.5391C46.8521 36.4166 47.0966 34.633 46.5376 33.126C46.3567 32.6365 46.0902 32.1763 45.7485 31.7782C45.7163 31.7367 45.6812 31.6961 45.6402 31.6573ZM44.4244 36.2402C43.6168 37.1026 42.1951 37.137 41.2842 36.4315C40.2292 35.6134 40.0891 34.069 40.9166 33.0388C41.823 31.9093 43.4619 31.9514 44.4617 32.8999C45.3626 33.872 45.3151 35.289 44.4244 36.2402Z" fill="white"/>
<path d="M58.2085 17.1824C57.5499 15.1379 55.3536 14.0881 53.3289 14.5461C53.2845 14.5537 53.2388 14.5639 53.1913 14.5788C53.1431 14.5918 53.1001 14.6075 53.0586 14.6249C51.0267 15.3487 49.9303 17.3595 50.3576 19.4715C50.5444 20.3955 51.0699 21.1519 51.7712 21.6866C52.2276 22.0353 52.7591 22.2891 53.3209 22.4325C54.1375 22.6402 55.0187 22.6152 55.8232 22.3054C57.8635 21.5199 58.8686 19.2286 58.2085 17.1824ZM55.2991 20.6823C53.9181 21.3974 52.3576 20.3455 52.0031 18.9917C51.6872 17.7812 52.5435 16.5849 53.6702 16.2214C54.8657 15.9088 56.1127 16.492 56.5639 17.6619C57.0309 18.8748 56.4019 20.1098 55.2991 20.6823Z" fill="white"/>
</svg>
