<svg width="65" height="56" viewBox="0 0 65 56" fill="none" xmlns="http://www.w3.org/2000/svg">
<path d="M47.6344 2.82399C47.4529 2.6736 47.2732 2.89647 47.3481 3.05149C47.577 3.52799 47.4808 3.8409 47.1002 4.27168C46.264 5.22078 44.301 6.03562 43.474 6.57327C43.0402 6.85435 42.6503 7.25292 42.2585 7.57259C41.6413 8.07447 40.8693 8.31437 40.4914 8.35468C40.3047 8.37524 40.1221 8.31199 40.106 8.12607C40.0669 7.66516 41.0297 7.0085 41.7656 6.53977C42.6169 5.99822 42.9788 5.47761 43.2096 4.75481C43.3841 4.20937 43.2653 3.62028 42.7586 3.14641C42.5856 2.98507 42.3935 3.19781 42.4588 3.35666C42.6609 3.84629 42.5466 4.15176 42.1418 4.56102C41.2508 5.46042 39.2449 6.16071 38.3886 6.64866C37.5533 7.12518 36.6144 7.75155 36.6407 8.70968C36.6517 9.11418 36.8327 9.47335 37.1087 9.77727C37.2196 9.89956 37.1744 10.097 37.0217 10.1616C36.1815 10.5125 35.0889 10.5134 34.9943 10.8099C34.8862 11.1475 36.3574 12.2382 37.4555 12.4231C38.5645 12.6091 39.2748 12.3576 39.759 12.0861C39.2692 12.4291 38.507 12.8515 37.1592 12.6853C36.8275 12.6444 36.4607 12.5268 36.1072 12.3715C35.7997 12.2356 35.4386 12.3229 35.231 12.5878C34.8884 13.0255 34.5809 13.4127 34.3244 13.7025C33.2615 14.9019 30.5834 16.028 29.0877 17.6247C27.2507 19.5868 27.0838 22.0615 25.2372 23.9512C23.6501 25.5756 20.886 26.857 18.5131 29.1861C17.8504 29.8368 17.3014 30.4819 16.8153 31.0991C15.8633 32.3085 12.8629 33.3496 13.1939 31.6011C13.4893 30.043 16.0608 28.642 17.1123 27.9626C18.2601 27.2213 19.8116 26.2776 19.8911 24.865C19.9708 23.4387 18.7819 21.7108 17.6622 20.9433C16.7605 20.3241 15.9534 19.9601 15.1309 20.0051C14.5139 20.0388 13.1214 20.5984 13.2079 20.8623C13.2954 21.1333 14.876 20.4818 15.0644 21.6182C15.1878 22.3574 15.6325 23.2761 16.6805 23.0679C17.7024 22.8643 18.1602 22.5095 18.9695 23.5527C19.4215 24.1368 19.5474 24.979 19.1695 25.6589C18.6155 26.6571 16.481 27.7951 15.1223 28.5831C13.9146 29.2826 11.9767 30.717 12.1273 32.396C12.2523 33.7871 14.0439 33.7466 15.0954 33.9462C15.3283 33.9894 15.3997 34.1582 15.3671 34.4674C15.1914 36.1568 15.331 37.5616 16.3689 39.8503C16.9358 41.1008 17.14 41.7646 17.3328 43.156C17.5454 44.6877 16.6541 45.637 16.6673 46.7429C16.6725 47.2328 16.8052 47.7204 16.9366 48.5272C17.0039 48.9396 16.9988 49.2672 16.8868 49.6822C16.7884 50.0455 16.5834 50.2758 16.647 50.5156C16.7087 50.7454 16.8921 50.9567 16.9887 51.1721C17.0676 51.3482 17.1212 51.5645 17.0907 51.8921C17.0514 52.306 17.0888 53.066 17.2848 53.335C17.5511 53.7 18.5464 53.3982 19.0015 53.2591C20.043 52.9417 20.5354 52.6001 20.195 52.0608C19.6668 51.2226 18.7964 51.0485 18.3532 50.5529C17.8895 50.0337 18.3602 49.4146 18.9225 47.5584C19.3172 46.2573 21.3128 45.0316 22.7707 42.9058C24.2341 40.7699 24.6689 39.1267 26.8722 37.7886C27.4119 37.4607 28.1749 37.2446 29.0581 37.0919C25.9049 37.9107 24.9233 40.1772 24.5928 40.8814C24.368 41.3599 24.3657 41.9113 24.6928 42.3284C25.0272 42.7562 25.3997 43.0532 25.958 43.4643C26.9321 44.1831 28.0171 44.6102 28.9506 45.0369C29.7364 45.3966 30.1774 45.7467 30.4394 46.0462C30.7585 46.4106 30.6693 46.5913 30.8654 46.8243C31.1261 47.1337 31.3279 46.8779 31.5403 47.2322C31.752 47.5845 31.4973 48.2253 31.8702 48.7816C32.0489 49.0493 32.9875 48.8688 33.4367 48.7315C34.4646 48.418 34.9333 48.1331 34.5196 47.6586C33.5213 46.5158 32.7782 46.4296 32.2095 45.743C31.5199 44.9105 30.9153 44.1443 30.5433 43.5951C29.9166 42.6733 29.9807 40.7538 30.3841 39.6821C30.7982 38.5818 31.9192 36.8296 33.6155 36.6474C34.3598 36.567 35.3505 36.6307 36.9961 36.2494C37.3996 36.155 37.1492 35.8447 36.853 35.5551C35.1375 33.8844 34.2546 31.1323 34.8117 29.3168C34.5079 31.5763 36.0052 34.18 38.0582 35.4865C38.847 35.9872 42.0587 37.2068 43.7992 38.4223C44.2897 38.7643 44.5654 39.2811 44.9385 39.562C45.2485 39.7936 45.7526 39.9209 46.1199 40.0838C46.7233 40.3516 47.089 40.7088 47.341 41.061C47.6452 41.487 47.5436 41.5452 47.7564 41.7956C48.0371 42.1299 48.2886 41.9612 48.4847 42.2779C48.7175 42.6548 48.552 43.4856 48.9432 44.1552C49.1186 44.4556 50.193 44.207 50.678 44.0581C51.7886 43.7195 52.3982 43.3585 51.9751 42.8264C50.9888 41.5827 50.0684 41.2771 49.3707 40.6132C48.7541 40.0274 48.3288 39.7056 47.9264 39.1134C47.7091 38.7934 47.6559 38.0804 47.3573 37.5903C46.8558 36.7675 46.3375 36.566 45.9825 35.9113C45.1883 34.4443 45.2228 31.0286 44.1289 28.3411C44.7872 29.1605 45.1058 30.2896 45.2856 31.4836C45.3256 31.7515 45.5974 31.7506 45.8286 31.6102C46.5364 31.1793 48.0939 30.0199 49.677 28.5449C50.2643 27.9988 50.5565 28.892 50.6 29.2627C50.6283 29.5086 50.6957 30.0195 50.6588 30.3543C50.6244 30.6683 50.4535 30.9066 50.4596 31.0658C50.4724 31.4073 50.7027 31.5254 50.6173 31.9443C50.5566 32.2373 50.341 32.4749 50.0082 32.4957C49.4903 32.5281 48.9124 32.8343 49.0222 33.6759C49.084 34.1492 49.4197 35.0574 49.9911 35.9635C50.2474 36.3706 50.864 36.4005 51.0375 36.0841C51.4559 35.5724 51.5705 34.4726 51.6284 34.0682C51.7295 33.3726 51.7347 32.8458 51.9397 31.5947C52.022 31.0963 52.0594 30.4182 52.0738 29.7956C52.0983 28.6702 52.1194 28.2341 52.0929 27.6022C52.0756 27.2048 52.0023 26.6374 52.1054 26.3193C52.2292 25.9338 51.9956 25.2744 51.6206 25.0088C51.3155 24.7907 50.8824 24.7179 50.3522 24.7846C49.7749 24.8565 49.1015 24.4503 48.5028 24.2998C48.2376 24.2331 47.9916 24.4679 48.0483 24.7352C48.3033 25.922 47.7328 27.9861 47.0686 29.3689C47.9577 27.1411 47.7861 24.98 46.8643 22.5156C46.6184 21.8576 46.085 20.9362 45.4147 20.1044C44.863 19.4181 44.1397 18.8951 43.3324 18.5417C42.0866 17.9953 40.857 16.4583 40.8023 15.1378C41.4588 16.9425 42.2055 17.5604 42.9357 17.9256C44.202 18.5603 45.0899 18.3258 45.8568 18.6899C46.4367 18.9645 46.5031 19.7987 47.0183 19.7788C47.5458 19.7573 47.6505 19.3466 48.1128 19.2214C48.4522 19.1288 50.2016 18.355 50.4011 17.2379C50.5292 16.5186 50.1255 15.5953 49.3703 15.4205C49.0571 15.3487 48.7443 14.3778 48.3974 13.798C47.9543 13.0557 47.2819 12.1695 47.3742 11.4436C47.4506 10.8378 47.331 9.26522 46.3631 8.25549C46.2353 8.12226 46.0983 8.00862 45.9562 7.91345C45.7197 7.75581 45.6636 7.42906 45.841 7.20578C46.0833 6.90004 46.4612 6.59077 46.8395 6.26866C47.6083 5.61458 47.9896 5.13911 48.1778 4.40438C48.3208 3.84907 48.1683 3.2677 47.6344 2.82399Z" fill="#2FB574"/>
<path d="M51.8625 21.52C49.7781 24.8058 47.5105 28.4258 45.4252 31.7119C45.4267 31.7136 45.4295 31.716 45.4311 31.7176C45.4708 31.7484 45.5106 31.7834 45.549 31.8241C45.5899 31.863 45.6251 31.9036 45.6563 31.9453C45.9982 32.3444 46.2645 32.8036 46.4453 33.2931C48.7067 29.7279 51.1518 25.8307 53.4131 22.2656C52.8513 22.1222 52.3199 21.8684 51.8625 21.52Z" fill="white"/>
<path d="M28.9357 28.2206C29.0696 28.8434 29.052 29.484 28.9008 30.0914C32.1041 31.591 35.6414 33.2737 38.8449 34.7742C38.8142 34.1785 38.9097 33.5799 39.1414 33.0273C35.8507 31.4855 32.2262 29.7615 28.9357 28.2206Z" fill="white"/>
<path d="M14.5477 41.9973C13.7663 41.6999 12.8766 41.6342 11.9498 41.8514C9.69765 42.3789 8.67901 44.8489 9.16348 46.9209C9.6901 49.1702 12.1632 50.1848 14.2381 49.6994C16.4 49.193 17.4217 46.8968 17.0712 44.8811C17.0681 44.8015 17.0558 44.7193 17.0242 44.629C17.0031 44.5387 16.9696 44.4638 16.9307 44.3957C16.6974 43.8241 16.3754 43.3303 15.9805 42.9308C18.1993 39.4342 20.5094 35.7711 22.7272 32.2748C22.2455 31.9228 21.8421 31.4654 21.564 30.9185C19.2559 34.5556 16.8558 38.3603 14.5477 41.9973ZM10.809 46.4411C9.79193 43.5449 14.3681 42.2276 15.3786 45.1088C16.0779 48.0955 11.8245 49.3357 10.809 46.4411Z" fill="white"/>
<path d="M28.8666 27.5768C28.8536 27.5467 28.8399 27.5179 28.8255 27.4903C28.8113 27.4489 28.7951 27.4081 28.7736 27.3668C27.826 25.5007 25.5895 24.6438 23.6328 25.3965C21.6428 26.162 20.664 28.3292 21.1911 30.3443C21.2593 30.6071 21.3555 30.8534 21.4728 31.085C21.7508 31.6319 22.1539 32.0883 22.6357 32.4402C23.7027 33.2199 25.1501 33.4841 26.4524 33.062C27.8088 32.622 28.7433 31.4833 29.0682 30.1824C29.2187 29.5762 29.237 28.9344 29.1021 28.3119C29.0482 28.0618 28.9714 27.8163 28.8666 27.5768ZM25.9735 31.4194C24.6475 31.9384 23.282 31.1484 22.8369 29.8654C22.4344 28.7099 23.146 27.5441 24.1581 27.0202C25.3436 26.4045 26.6845 27.1244 27.2706 28.183C27.7556 29.4543 27.3213 30.8919 25.9735 31.4194Z" fill="white"/>
<path d="M45.6402 31.6576C45.6016 31.6159 45.563 31.5817 45.5233 31.5509C45.5205 31.5485 45.519 31.5468 45.5161 31.5445C43.8505 30.0774 41.4145 30.1597 39.8088 31.7133C39.4371 32.0727 39.1613 32.4888 38.9747 32.935C38.7433 33.4886 38.6478 34.0872 38.6785 34.6829C38.7319 35.7485 39.1859 36.8043 39.9758 37.5631C41.541 39.0669 43.9639 38.8889 45.5412 37.5394C46.8521 36.417 47.0966 34.6333 46.5376 33.1263C46.3567 32.6369 46.0902 32.1766 45.7485 31.7785C45.7163 31.7371 45.6812 31.6965 45.6402 31.6576ZM44.4244 36.2406C43.6168 37.103 42.1951 37.1373 41.2841 36.4319C40.2292 35.6138 40.0891 34.0693 40.9165 33.0391C41.823 31.9097 43.4619 31.9518 44.4617 32.9003C45.3626 33.8724 45.3151 35.2894 44.4244 36.2406Z" fill="white"/>
<path d="M58.2085 17.1821C57.5499 15.1376 55.3536 14.0879 53.3289 14.5458C53.2845 14.5535 53.2388 14.5636 53.1913 14.5786C53.1431 14.5915 53.1001 14.6073 53.0586 14.6247C51.0267 15.3484 49.9303 17.3593 50.3576 19.4712C50.5444 20.3952 51.0699 21.1517 51.7712 21.6864C52.2276 22.0351 52.7591 22.2889 53.3209 22.4322C54.1375 22.6399 55.0187 22.6149 55.8232 22.3052C57.8635 21.5196 58.8686 19.2283 58.2085 17.1821ZM55.2991 20.6821C53.9181 21.3971 52.3576 20.3452 52.0031 18.9914C51.6872 17.781 52.5435 16.5846 53.6702 16.2212C54.8657 15.9086 56.1127 16.4917 56.5639 17.6616C57.0309 18.8746 56.4019 20.1096 55.2991 20.6821Z" fill="white"/>
</svg>
