<svg width="293" height="293" viewBox="0 0 293 293" fill="none" xmlns="http://www.w3.org/2000/svg">
<mask id="mask0_1_490" style="mask-type:luminance" maskUnits="userSpaceOnUse" x="39" y="39" width="214" height="214">
<ellipse cx="146.008" cy="146.019" rx="106.874" ry="106.904" transform="rotate(30 146.008 146.019)" fill="white"/>
</mask>
<g mask="url(#mask0_1_490)">
<rect x="104.08" y="-22.9578" width="2.67185" height="227.172" transform="rotate(30 104.08 -22.9578)" fill="#2FB574"/>
<rect x="117.964" y="-14.9424" width="2.67185" height="227.172" transform="rotate(30 117.964 -14.9424)" fill="#2FB574"/>
<rect x="130.689" y="-7.59473" width="2.67185" height="227.172" transform="rotate(30 130.689 -7.59473)" fill="#2FB574"/>
<rect x="144.573" y="0.420654" width="2.67185" height="227.172" transform="rotate(30 144.573 0.420654)" fill="#2FB574"/>
<rect x="158.457" y="8.43628" width="2.67185" height="227.172" transform="rotate(30 158.457 8.43628)" fill="#2FB574"/>
<rect x="171.182" y="15.7839" width="2.67185" height="227.172" transform="rotate(30 171.182 15.7839)" fill="#2FB574"/>
<rect x="185.066" y="23.7996" width="2.67185" height="227.172" transform="rotate(30 185.066 23.7996)" fill="#2FB574"/>
<rect x="198.95" y="31.8149" width="2.67185" height="227.172" transform="rotate(30 198.95 31.8149)" fill="#2FB574"/>
<rect x="211.675" y="39.1624" width="2.67185" height="227.172" transform="rotate(30 211.675 39.1624)" fill="#2FB574"/>
<rect x="225.559" y="47.1782" width="2.67185" height="227.172" transform="rotate(30 225.559 47.1782)" fill="#2FB574"/>
<rect x="239.443" y="55.1936" width="2.67185" height="227.172" transform="rotate(30 239.443 55.1936)" fill="#2FB574"/>
<rect x="251.012" y="61.873" width="2.67185" height="227.172" transform="rotate(30 251.012 61.873)" fill="#2FB574"/>
<rect x="266.052" y="70.5566" width="2.67185" height="227.172" transform="rotate(30 266.052 70.5566)" fill="#2FB574"/>
<rect x="278.778" y="77.9043" width="2.67185" height="227.172" transform="rotate(30 278.778 77.9043)" fill="#2FB574"/>
<rect x="292.662" y="85.9197" width="2.67185" height="227.172" transform="rotate(30 292.662 85.9197)" fill="#2FB574"/>
</g>
</svg>
