<svg width="40" height="41" viewBox="0 0 40 41" fill="none" xmlns="http://www.w3.org/2000/svg">
<rect y="0.5" width="40" height="40" rx="20" fill="#163D2A" fill-opacity="0.15"/>
<path d="M25.0334 21.7918C24.6834 22.1335 24.4834 22.6252 24.5334 23.1502C24.6084 24.0502 25.4334 24.7085 26.3334 24.7085H27.9167V25.7002C27.9167 27.4252 26.5084 28.8335 24.7834 28.8335H15.2167C13.4917 28.8335 12.0834 27.4252 12.0834 25.7002V20.0918C12.0834 18.3668 13.4917 16.9585 15.2167 16.9585H24.7834C26.5084 16.9585 27.9167 18.3668 27.9167 20.0918V21.2918H26.2334C25.7667 21.2918 25.3417 21.4752 25.0334 21.7918Z" stroke="#163D2A" stroke-width="1.5" stroke-linecap="round" stroke-linejoin="round"/>
<path d="M12.0831 20.8416V17.0333C12.0831 16.0416 12.6915 15.1583 13.6165 14.8083L20.2331 12.3083C21.2665 11.9166 22.3748 12.6833 22.3748 13.7916V16.9583" stroke="#163D2A" stroke-width="1.5" stroke-linecap="round" stroke-linejoin="round"/>
<path d="M28.7992 22.142V23.8587C28.7992 24.317 28.4325 24.692 27.9659 24.7086H26.3325C25.4325 24.7086 24.6075 24.0503 24.5325 23.1503C24.4825 22.6253 24.6825 22.1336 25.0325 21.792C25.3409 21.4753 25.7659 21.292 26.2325 21.292H27.9659C28.4325 21.3087 28.7992 21.6836 28.7992 22.142Z" stroke="#163D2A" stroke-width="1.5" stroke-linecap="round" stroke-linejoin="round"/>
<path d="M15.8331 20.5H21.6665" stroke="#163D2A" stroke-width="1.5" stroke-linecap="round" stroke-linejoin="round"/>
</svg>
