<svg width="73" height="74" viewBox="0 0 73 74" fill="none" xmlns="http://www.w3.org/2000/svg">
<circle cx="36.7479" cy="36.9607" r="36.2521" fill="black" fill-opacity="0.05"/>
<path fill-rule="evenodd" clip-rule="evenodd" d="M42.5692 49.4737L36.7233 46.4221C36.3829 46.2434 35.9764 46.2434 35.636 46.4221L34.3031 47.1236C33.7342 47.4058 33.0441 47.1821 32.7487 46.62C32.4534 46.0578 32.6607 45.3627 33.2158 45.0542L34.5487 44.3527C35.5699 43.8163 36.7895 43.8163 37.8107 44.3527L42.5575 46.8547L41.6455 41.5701C41.4517 40.4349 41.8276 39.2768 42.651 38.4718L46.4976 34.7304L41.1896 33.9588C40.0469 33.7935 39.0588 33.0764 38.5472 32.0413L36.2089 27.236L33.8705 32.0413C33.359 33.0764 32.3709 33.7935 31.2282 33.9588L25.9202 34.7304L29.7668 38.4718C30.594 39.2794 30.9701 40.4427 30.7722 41.5818L29.6615 48.0356C29.5905 48.4533 29.3021 48.8014 28.9048 48.9488C28.5076 49.0961 28.0619 49.0203 27.7356 48.75C27.4094 48.4796 27.2522 48.0558 27.3232 47.6381L28.4339 41.1842C28.5002 40.8026 28.3732 40.413 28.0948 40.1437L23.4181 35.5722C22.9391 35.1066 22.7663 34.4093 22.9723 33.7738C23.1783 33.1384 23.7275 32.6751 24.3886 32.5791L30.8658 31.6321C31.246 31.575 31.5739 31.3346 31.7427 30.9891L34.6422 25.1432C34.9377 24.5447 35.5473 24.1658 36.2147 24.1658C36.8822 24.1658 37.4918 24.5447 37.7873 25.1432L40.6868 30.9891C40.8556 31.3346 41.1835 31.575 41.5637 31.6321L48.0409 32.5791C48.702 32.6751 49.2512 33.1384 49.4572 33.7738C49.6632 34.4093 49.4903 35.1066 49.0113 35.5722L44.3346 40.1437C44.06 40.4104 43.9333 40.7948 43.9956 41.1726L45.1063 47.6264C45.1962 48.1374 45.0553 48.662 44.7213 49.0591C44.3874 49.4562 43.8948 49.6851 43.3759 49.6841L43.3876 49.6724C43.1027 49.6737 42.8218 49.6054 42.5692 49.4737Z" fill="#79EFBC"/>
</svg>
