<svg width="182" height="42" viewBox="0 0 182 42" fill="none" xmlns="http://www.w3.org/2000/svg">
<g clip-path="url(#clip0_1_581)">
<path d="M28.8928 27.4078C33.8598 24.6768 37.6256 22.596 37.9502 22.4344C38.9882 21.8813 40.0606 20.418 37.9502 19.2815C37.2688 18.9242 33.6 16.9078 28.8928 14.3081L22.3679 20.9064L28.8925 27.4078H28.8928Z" fill="#FFD900"/>
<path d="M22.3679 20.9062L1.59073 41.8739C2.07808 41.9386 2.6287 41.8091 3.27814 41.4517C4.64101 40.705 19.088 32.8047 28.8932 27.4091L22.3679 20.9062Z" fill="#F43249"/>
<path d="M22.3679 20.9065L28.8925 14.3403C28.8925 14.3403 4.73945 1.14198 3.27776 0.363204C2.72785 0.0357465 2.11076 -0.0610671 1.55872 0.0357465L22.3679 20.9062V20.9065Z" fill="#00EE76"/>
<path d="M22.3679 20.9066L1.55837 0.0361328C0.713781 0.23154 0 0.978641 0 2.50595V39.4033C0 40.8021 0.552398 41.8094 1.59037 41.9062L22.3675 20.9062L22.3679 20.9066Z" fill="#00D3FF"/>
<path d="M90.1231 16.7442C86.3899 16.7442 83.3055 19.6369 83.3055 23.603C83.3055 27.5368 86.3576 30.4619 90.1234 30.4619C93.8889 30.4619 96.9406 27.5692 96.9406 23.603C96.9406 19.6369 93.8889 16.7442 90.1231 16.7442ZM90.1231 27.7326C88.0773 27.7326 86.2929 26.0091 86.2929 23.5724C86.2929 21.1019 88.0788 19.4123 90.1231 19.4123C92.1674 19.4123 93.9532 21.1019 93.9532 23.5724C93.9532 26.0091 92.1674 27.7326 90.1231 27.7326ZM75.2869 16.7442C71.521 16.7442 68.469 19.6369 68.469 23.603C68.469 27.5368 71.521 30.4619 75.2869 30.4619C79.0523 30.4619 82.1044 27.5692 82.1044 23.603C82.1044 19.6369 79.0523 16.7442 75.2865 16.7442H75.2869ZM75.2869 27.7326C73.2408 27.7326 71.4567 26.0091 71.4567 23.5724C71.4567 21.1019 73.2426 19.4123 75.2869 19.4123C77.3326 19.4123 79.117 21.1019 79.117 23.5724C79.117 26.0091 77.3632 27.7326 75.2869 27.7326ZM57.6585 18.8574V21.7501H64.5403C64.3448 23.3752 63.7946 24.5779 62.9823 25.3912C61.9763 26.3985 60.418 27.5044 57.6585 27.5044C53.4049 27.5044 50.1271 24.059 50.1271 19.8003C50.1271 15.5415 53.4067 12.031 57.6585 12.031C59.9626 12.031 61.6194 12.9415 62.8529 14.1121L64.8972 12.0634C63.176 10.4061 60.8719 9.13867 57.6585 9.13867C51.8465 9.13867 46.9766 13.9163 46.9766 19.7355C46.9766 25.555 51.8465 30.3327 57.6585 30.3327C60.8072 30.3327 63.1455 29.293 65.028 27.3414C66.9433 25.4236 67.5277 22.725 67.5277 20.5474C67.5277 19.865 67.4634 19.2471 67.3649 18.7268L57.6585 18.8574ZM129.795 21.1001C129.242 19.5721 127.49 16.7442 123.983 16.7442C120.476 16.7442 117.587 19.5077 117.587 23.603C117.587 27.4382 120.476 30.4619 124.308 30.4619C127.424 30.4619 129.21 28.5441 129.956 27.4382L127.652 25.8782C126.872 27.0164 125.834 27.7632 124.308 27.7632C122.782 27.7632 121.711 27.0809 121.028 25.6824L130.086 21.8796L129.795 21.1001ZM120.574 23.4091C120.51 20.7752 122.62 19.4105 124.112 19.4105C125.314 19.4105 126.288 19.9957 126.644 20.8738L120.574 23.4091ZM113.205 30.0073H116.192V9.91781H113.205V30.0073ZM108.336 18.2722H108.239C107.558 17.4589 106.292 16.7442 104.667 16.7442C101.258 16.7442 98.1744 19.7679 98.1744 23.603C98.1744 27.4382 101.291 30.4298 104.667 30.4298C106.29 30.4298 107.556 29.7148 108.239 28.8691H108.336V29.8443C108.336 32.4782 106.939 33.8749 104.7 33.8749C102.882 33.8749 101.745 32.5426 101.291 31.4368L98.6945 32.5426C99.4403 34.3632 101.422 36.606 104.7 36.606C108.205 36.606 111.16 34.5252 111.16 29.487V17.1664H108.336V18.2722ZM104.927 27.7326C102.882 27.7326 101.162 26.0091 101.162 23.6048C101.162 21.2005 102.883 19.4443 104.927 19.4443C106.941 19.4443 108.564 21.2005 108.564 23.6048C108.562 25.9768 106.939 27.7326 104.927 27.7326ZM143.722 9.91816H136.58V30.0073H139.567V22.4H143.722C147.034 22.4 150.28 19.9939 150.28 16.1591C150.28 12.3239 147.034 9.91781 143.722 9.91781V9.91816ZM143.819 19.6063H139.598V12.7133H143.819C146.026 12.7133 147.325 14.5663 147.325 16.1587C147.294 17.7191 146.028 19.6063 143.819 19.6063ZM162.195 16.7118C160.052 16.7118 157.812 17.6547 156.903 19.8003L159.534 20.9061C160.118 19.8003 161.157 19.4429 162.261 19.4429C163.82 19.4429 165.378 20.3854 165.41 22.0426V22.2384C164.858 21.9134 163.723 21.4575 162.294 21.4575C159.437 21.4575 156.546 23.0503 156.546 25.9768C156.546 28.6751 158.885 30.3974 161.481 30.3974C163.495 30.3974 164.598 29.487 165.279 28.4149H165.376V29.9753H168.265V22.2704C168.233 18.7278 165.604 16.7115 162.195 16.7115V16.7118ZM161.838 27.7002C160.864 27.7002 159.5 27.2118 159.5 26.0106C159.5 24.4502 161.187 23.865 162.649 23.865C163.947 23.865 164.564 24.1576 165.376 24.5473C165.149 26.4003 163.558 27.7002 161.838 27.7002ZM178.687 17.1681L175.278 25.8472H175.181L171.643 17.1678H168.43L173.753 29.325L170.733 36.1194H173.85L181.998 17.1678H178.686L178.687 17.1681ZM151.936 30.0073H154.924V9.91781H151.936V30.0073Z" fill="white"/>
</g>
<defs>
<clipPath id="clip0_1_581">
<rect width="182" height="42" fill="white"/>
</clipPath>
</defs>
</svg>
