<svg width="1992" height="930" viewBox="0 0 1992 930" fill="none" xmlns="http://www.w3.org/2000/svg">
<g opacity="0.2">
<mask id="mask0_14_90" style="mask-type:alpha" maskUnits="userSpaceOnUse" x="0" y="0" width="1992" height="930">
<rect width="1992" height="930" rx="16" fill="white"/>
</mask>
<g mask="url(#mask0_14_90)">
<path opacity="0.0526316" d="M988.863 1337.85C1047.09 1378.03 1194.63 1398.21 1318.98 1157.46C1474.41 856.519 1440.91 477.29 1559.71 152.748C1647.39 -86.7874 1932.75 -590.753 2202.63 -583.54" stroke="white" stroke-opacity="0.3" stroke-width="3"/>
<path opacity="0.105263" d="M903.323 1219.3C958.644 1269.15 1104.08 1314.26 1243.24 1095.93C1417.2 823.027 1408.29 440.187 1547.33 137.589C1649.95 -85.7509 1966.18 -538.518 2234.12 -485.535" stroke="white" stroke-opacity="0.3" stroke-width="3"/>
<path opacity="0.157895" d="M825.005 1091.29C876.815 1150.26 1018.55 1219.8 1171 1026.3C1361.57 784.415 1377.35 402.161 1535.11 124.821C1651.54 -79.8761 1995.19 -476.484 2258.25 -378.311" stroke="white" stroke-opacity="0.3" stroke-width="3"/>
<path opacity="0.210526" d="M754.476 955.09C802.206 1022.52 938.686 1115.75 1102.76 949.182C1307.86 740.972 1348.16 363.49 1522.9 114.448C1651.87 -69.3643 2019.17 -405.468 2274.47 -263.181" stroke="white" stroke-opacity="0.3" stroke-width="3"/>
<path opacity="0.263158" d="M692.219 812.073C735.347 887.24 865.078 1003.12 1038.98 865.316C1256.35 693.06 1320.73 324.487 1510.55 106.47C1650.64 -54.4427 2037.56 -326.36 2282.3 -141.518" stroke="white" stroke-opacity="0.3" stroke-width="3"/>
<path opacity="0.315789" d="M638.63 663.679C676.683 745.754 798.244 883.022 980.061 775.49C1207.33 641.075 1295.08 285.448 1497.89 100.845C1647.58 -35.4051 2049.88 -240.156 2281.38 -14.7842" stroke="white" stroke-opacity="0.3" stroke-width="3"/>
<path opacity="0.368421" d="M594.01 511.399C626.572 599.484 738.632 756.633 926.374 680.553C1161.05 585.452 1271.21 246.667 1484.8 97.502C1642.44 -12.5932 2055.71 -147.935 2271.44 115.498" stroke="white" stroke-opacity="0.3" stroke-width="3"/>
<path opacity="0.421053" d="M558.556 356.789C585.269 449.918 686.599 625.228 878.211 581.432C1117.73 526.687 1249.09 208.457 1471.1 96.3631C1634.97 13.6292 2054.69 -50.8199 2252.28 247.787" stroke="white" stroke-opacity="0.3" stroke-width="3"/>
<path opacity="0.473684" d="M532.371 201.413C552.943 298.567 642.433 490.116 835.814 479.085C1077.54 465.295 1228.67 171.107 1456.68 97.3119C1624.97 42.8458 2046.55 49.9951 2223.83 380.505" stroke="white" stroke-opacity="0.3" stroke-width="3"/>
<path opacity="0.526316" d="M515.451 46.8458C529.657 146.959 606.327 352.65 799.359 374.504C1040.65 401.821 1209.89 134.897 1441.4 100.21C1612.27 74.6085 2031.08 153.278 2186.12 512.069" stroke="white" stroke-opacity="0.3" stroke-width="3"/>
<path opacity="0.578947" d="M507.694 -105.343C515.378 -3.36603 578.388 214.212 768.955 268.712C1007.16 336.837 1192.66 100.101 1425.14 104.902C1596.72 108.446 2008.17 257.773 2139.26 640.915" stroke="white" stroke-opacity="0.3" stroke-width="3"/>
<path opacity="0.631579" d="M508.899 -253.605C509.977 -150.883 558.636 76.1984 744.652 162.747C977.171 270.933 1176.89 66.9803 1407.78 111.216C1578.2 143.866 1977.78 362.215 2083.49 765.51" stroke="white" stroke-opacity="0.3" stroke-width="3"/>
<path opacity="0.684211" d="M518.759 -396.443C513.219 -294.1 546.995 -60.0034 726.42 57.6459C950.702 204.708 1162.45 35.7722 1389.23 118.959C1556.62 180.357 1939.96 465.336 2019.13 884.366" stroke="white" stroke-opacity="0.3" stroke-width="3"/>
<path opacity="0.736842" d="M536.88 -532.425C524.782 -431.584 543.304 -193.036 714.174 -45.5755C927.76 138.751 1149.22 6.68322 1369.41 127.909C1531.92 217.383 1894.82 565.87 1946.58 996.042" stroke="white" stroke-opacity="0.3" stroke-width="3"/>
<path opacity="0.789474" d="M562.775 -660.177C544.253 -561.942 547.318 -321.557 707.76 -145.9C908.311 73.6713 1137.06 -20.0811 1348.24 137.856C1504.1 254.425 1842.58 662.601 1866.37 1099.2" stroke="white" stroke-opacity="0.3" stroke-width="3"/>
<path opacity="0.842105" d="M595.874 -778.434C571.13 -683.88 558.705 -444.292 706.961 -242.363C892.281 10.0469 1125.81 -44.3633 1325.67 148.554C1473.17 290.942 1783.52 754.335 1779.08 1192.59" stroke="white" stroke-opacity="0.3" stroke-width="3"/>
<path opacity="0.894737" d="M635.525 -886.014C604.83 -796.179 577.051 -560.012 711.497 -334.025C879.554 -51.5402 1115.31 -66.0121 1301.65 159.773C1439.19 326.419 1718 839.952 1685.37 1275.05" stroke="white" stroke-opacity="0.3" stroke-width="3"/>
<path opacity="0.947368" d="M681.006 -981.874C644.696 -897.742 601.868 -667.584 721.03 -420.013C869.983 -110.55 1105.38 -84.9247 1276.17 171.253C1402.22 360.332 1646.45 918.379 1586 1345.55" stroke="white" stroke-opacity="0.3" stroke-width="3"/>
<path d="M731.527 -1065.08C690.001 -987.571 632.591 -765.944 735.165 -499.503C863.382 -166.451 1095.84 -101.01 1249.2 182.754C1362.39 392.194 1569.37 988.641 1481.75 1403.21" stroke="white" stroke-opacity="0.3" stroke-width="3"/>
</g>
</g>
</svg>
