<svg width="1440" height="655" viewBox="0 0 1440 655" fill="none" xmlns="http://www.w3.org/2000/svg">
<path fill-rule="evenodd" clip-rule="evenodd" d="M-7 0.632999C-7 0.632999 79.2414 6.13512 120.361 6.10429C270.136 5.99203 307.185 0.0858693 468.697 0.0858693C630.209 0.0858693 679.225 0.632999 679.225 0.632999C679.225 0.632999 792.106 6.10429 887.744 6.10429C983.381 6.10429 975.028 2.05725 1078.99 0.632999C1182.95 -0.791249 1211.37 0.632999 1290.32 0.632999C1369.27 0.632999 1445 0.632999 1445 0.632999V647.614C1445 647.614 1411.65 655 1259.78 655C1107.91 655 1100.48 647.614 950.018 647.614C799.555 647.614 823.26 655 631.012 655C438.765 655 386.133 644.057 253.749 644.057C121.366 644.057 -7 655 -7 655V0.632999Z" fill="url(#paint0_linear_1_589)"/>
<defs>
<linearGradient id="paint0_linear_1_589" x1="1445" y1="-0.000204653" x2="-107.491" y2="656.534" gradientUnits="userSpaceOnUse">
<stop stop-color="#086436"/>
<stop offset="1" stop-color="#012E17"/>
</linearGradient>
</defs>
</svg>
