<svg width="2057" height="383" viewBox="0 0 2057 383" fill="none" xmlns="http://www.w3.org/2000/svg">
<mask id="mask0_1_306" style="mask-type:alpha" maskUnits="userSpaceOnUse" x="0" y="0" width="2057" height="383">
<rect width="2057" height="383" rx="16" fill="#086436"/>
</mask>
<g mask="url(#mask0_1_306)">
<path opacity="0.0526316" d="M1021.13 550.964C1081.26 567.512 1233.61 575.821 1362.02 476.673C1522.53 352.739 1487.93 196.561 1610.6 62.9062C1701.15 -35.7413 1995.82 -243.289 2274.5 -240.318" stroke="white" stroke-opacity="0.3" stroke-width="3"/>
<path opacity="0.105263" d="M932.799 502.142C989.925 522.67 1140.1 541.248 1283.81 451.335C1463.44 338.945 1454.24 181.281 1597.82 56.663C1703.79 -35.3147 2030.34 -221.777 2307.02 -199.957" stroke="white" stroke-opacity="0.3" stroke-width="3"/>
<path opacity="0.157895" d="M851.926 449.425C905.426 473.707 1051.78 502.35 1209.21 422.658C1406 323.044 1422.3 165.621 1585.2 51.4048C1705.43 -32.8953 2060.3 -196.23 2331.94 -155.799" stroke="white" stroke-opacity="0.3" stroke-width="3"/>
<path opacity="0.210526" d="M779.095 393.333C828.383 421.104 969.316 459.497 1138.75 390.9C1350.53 305.153 1392.15 149.695 1572.59 47.1327C1705.78 -28.5662 2085.06 -166.983 2348.68 -108.385" stroke="white" stroke-opacity="0.3" stroke-width="3"/>
<path opacity="0.263158" d="M714.807 334.435C759.342 365.39 893.306 413.114 1072.88 356.362C1297.35 285.422 1363.82 133.633 1559.84 43.8475C1704.51 -22.4208 2104.05 -134.404 2356.77 -58.2807" stroke="white" stroke-opacity="0.3" stroke-width="3"/>
<path opacity="0.315789" d="M659.469 273.322C698.764 307.123 824.292 363.653 1012.04 319.368C1246.73 264.013 1337.34 117.555 1546.77 41.531C1701.34 -14.5806 2116.77 -98.9027 2355.83 -6.08837" stroke="white" stroke-opacity="0.3" stroke-width="3"/>
<path opacity="0.368421" d="M613.393 210.608C647.017 246.884 762.733 311.603 956.602 280.271C1198.94 241.106 1312.69 101.585 1533.24 40.1541C1696.03 -5.18613 2122.79 -60.9235 2345.56 47.5654" stroke="white" stroke-opacity="0.3" stroke-width="3"/>
<path opacity="0.421053" d="M576.782 146.936C604.367 185.289 709.004 257.487 906.868 239.45C1154.2 216.905 1289.85 85.8487 1519.11 39.6852C1688.32 5.61311 2121.74 -20.9288 2325.77 102.046" stroke="white" stroke-opacity="0.3" stroke-width="3"/>
<path opacity="0.473684" d="M549.743 82.9477C570.986 122.958 663.397 201.844 863.088 197.301C1112.7 191.622 1268.76 70.4668 1504.21 40.076C1678 17.6454 2113.33 20.5896 2296.4 156.703" stroke="white" stroke-opacity="0.3" stroke-width="3"/>
<path opacity="0.526316" d="M532.27 19.2925C546.94 60.522 626.111 145.231 825.442 154.231C1074.61 165.481 1249.36 55.5545 1488.43 41.2694C1664.88 30.726 2097.36 63.1242 2257.45 210.884" stroke="white" stroke-opacity="0.3" stroke-width="3"/>
<path opacity="0.578947" d="M524.26 -43.3829C532.195 -1.38617 597.261 88.2185 794.047 110.663C1040.03 138.719 1231.57 41.2246 1471.64 43.2018C1648.82 44.661 2073.7 106.158 2209.07 263.947" stroke="white" stroke-opacity="0.3" stroke-width="3"/>
<path opacity="0.631579" d="M525.505 -104.442C526.618 -62.1379 576.865 31.3806 768.95 67.0238C1009.06 111.578 1215.29 27.5844 1453.72 45.802C1629.7 59.248 2042.32 149.17 2151.48 315.259" stroke="white" stroke-opacity="0.3" stroke-width="3"/>
<path opacity="0.684211" d="M535.686 -163.266C529.965 -121.119 564.843 -24.7109 750.123 23.7404C981.724 84.3045 1200.38 14.7322 1434.57 48.9908C1607.41 74.2763 2003.26 191.639 2085.01 364.207" stroke="white" stroke-opacity="0.3" stroke-width="3"/>
<path opacity="0.736842" d="M554.399 -219.268C541.906 -177.738 561.033 -79.4977 737.478 -18.7692C958.034 57.1414 1186.72 2.75238 1414.09 52.6766C1581.91 89.5244 1956.65 233.041 2010.1 410.198" stroke="white" stroke-opacity="0.3" stroke-width="3"/>
<path opacity="0.789474" d="M581.139 -271.879C562.012 -231.423 565.178 -132.426 730.854 -60.0855C937.95 30.34 1174.16 -8.26983 1392.23 56.773C1553.18 104.78 1902.7 272.878 1927.27 452.683" stroke="white" stroke-opacity="0.3" stroke-width="3"/>
<path opacity="0.842105" d="M615.318 -320.581C589.766 -281.641 576.936 -182.972 730.029 -99.8119C921.396 4.13776 1162.55 -18.2699 1368.92 61.179C1521.25 119.818 1841.72 310.656 1837.13 491.14" stroke="white" stroke-opacity="0.3" stroke-width="3"/>
<path opacity="0.894737" d="M656.263 -364.885C624.566 -327.889 595.881 -230.629 734.713 -137.561C908.254 -21.2256 1151.7 -27.1856 1344.12 65.7989C1486.15 134.428 1774.06 345.916 1740.37 525.1" stroke="white" stroke-opacity="0.3" stroke-width="3"/>
<path opacity="0.947368" d="M703.227 -404.363C665.733 -369.715 621.507 -274.93 744.558 -172.973C898.371 -45.5274 1141.45 -34.9743 1317.81 70.5269C1447.97 148.395 1700.18 378.214 1637.75 554.136" stroke="white" stroke-opacity="0.3" stroke-width="3"/>
<path d="M755.397 -438.629C712.515 -406.709 653.233 -315.436 759.154 -205.709C891.555 -68.5486 1131.6 -41.5981 1289.96 75.264C1406.85 161.517 1620.58 407.151 1530.1 577.883" stroke="white" stroke-opacity="0.3" stroke-width="3"/>
</g>
</svg>
