<svg width="1450" height="2501" viewBox="0 0 1450 2501" fill="none" xmlns="http://www.w3.org/2000/svg">
<path fill-rule="evenodd" clip-rule="evenodd" d="M0 2.41699C0 2.41699 86.1227 23.4258 127.186 23.3082C276.754 22.8795 313.752 0.327877 475.042 0.327877C636.331 0.327877 685.279 2.41699 685.279 2.41699C685.279 2.41699 798.006 23.3082 893.511 23.3082C989.017 23.3082 980.676 7.85523 1084.49 2.41699C1188.31 -3.02124 1216.69 2.41699 1295.53 2.41699C1374.37 2.41699 1450 2.41699 1450 2.41699V2472.8C1450 2472.8 1416.7 2501 1265.04 2501C1113.38 2501 1105.96 2472.8 955.7 2472.8C805.444 2472.8 829.116 2501 637.133 2501C445.151 2501 392.591 2459.22 260.39 2459.22C128.189 2459.22 0 2501 0 2501V2.41699Z" fill="url(#paint0_linear_1_135)"/>
<defs>
<linearGradient id="paint0_linear_1_135" x1="1471" y1="-3.08201e-05" x2="-396.82" y2="2368.86" gradientUnits="userSpaceOnUse">
<stop stop-color="#18BC6A" stop-opacity="0.21"/>
<stop offset="1" stop-color="#086436" stop-opacity="0"/>
</linearGradient>
</defs>
</svg>
