<svg width="18" height="21" viewBox="0 0 18 21" fill="none" xmlns="http://www.w3.org/2000/svg">
<path fill-rule="evenodd" clip-rule="evenodd" d="M8.72809 20.6832C8.83883 20.7413 8.96266 20.7709 9.08649 20.7699C9.21032 20.7689 9.33314 20.7383 9.44489 20.6792L13.0128 18.7631C14.0245 18.2212 14.8168 17.6153 15.435 16.9099C16.779 15.373 17.5129 13.4115 17.4998 11.3889L17.4575 4.71728C17.4535 3.94884 16.9511 3.26315 16.2082 3.0139L9.57073 0.776543C9.17106 0.640587 8.73313 0.643543 8.3405 0.783439L1.72824 3.10059C0.989299 3.3597 0.495998 4.05031 0.500024 4.81974L0.542307 11.4865C0.555395 13.512 1.31448 15.4647 2.68062 16.9858C3.3048 17.6813 4.10415 18.2783 5.12699 18.8113L8.72809 20.6832ZM7.78315 12.8417C7.93214 12.9856 8.12544 13.0565 8.31873 13.0545C8.51202 13.0535 8.70431 12.9806 8.8513 12.8348L12.7504 8.97293C13.0434 8.6823 13.0403 8.21532 12.7444 7.92864C12.4474 7.64195 11.9692 7.64392 11.6762 7.93455L8.30766 11.2704L6.92843 9.9384C6.63144 9.65172 6.15424 9.65467 5.86028 9.9453C5.56732 10.2359 5.57034 10.7029 5.86732 10.9896L7.78315 12.8417Z" fill="white"/>
</svg>
