<svg width="20" height="21" viewBox="0 0 20 21" fill="none" xmlns="http://www.w3.org/2000/svg">
<path fill-rule="evenodd" clip-rule="evenodd" d="M5.67 0.676514H14.34C17.73 0.676514 20 3.06763 20 6.62416V14.8333C20 18.3788 17.73 20.7699 14.34 20.7699H5.67C2.28 20.7699 0 18.3788 0 14.8333V6.62416C0 3.06763 2.28 0.676514 5.67 0.676514ZM9.43043 13.7273L14.1804 8.95512C14.5204 8.61353 14.5204 8.06096 14.1804 7.70932C13.8404 7.36773 13.2804 7.36773 12.9404 7.70932L8.81043 11.8586L7.06043 10.1005C6.72043 9.75886 6.16043 9.75886 5.82043 10.1005C5.48043 10.442 5.48043 10.9946 5.82043 11.3463L8.20043 13.7273C8.37043 13.8981 8.59043 13.9785 8.81043 13.9785C9.04043 13.9785 9.26043 13.8981 9.43043 13.7273Z" fill="white"/>
</svg>
