<svg width="77" height="24" viewBox="0 0 77 24" fill="none" xmlns="http://www.w3.org/2000/svg">
<path fill-rule="evenodd" clip-rule="evenodd" d="M0.749962 0.749962C0 1.49992 0 2.70697 0 5.12106L0 14.8546C0 17.2687 0 18.4758 0.749962 19.2257C1.49992 19.9757 2.70697 19.9757 5.12106 19.9757H35.5146L37.8427 23.0798L40.1707 19.9757H71.4524C73.8665 19.9757 75.0735 19.9757 75.8235 19.2257C76.5735 18.4758 76.5735 17.2687 76.5735 14.8546V5.12106C76.5735 2.70697 76.5735 1.49992 75.8235 0.749962C75.0735 0 73.8665 0 71.4524 0L5.12106 0C2.70697 0 1.49992 0 0.749962 0.749962Z" fill="#163D2A"/>
</svg>
