<svg width="339" height="42" viewBox="0 0 339 42" fill="none" xmlns="http://www.w3.org/2000/svg">
<path d="M0.847427 41.1096C0.847427 41.1096 29.1693 17.5528 51.1604 15.231C73.1934 12.9049 83.8148 31.9096 105.896 30.0975C124.638 28.5595 131.882 12.9364 150.681 12.478C163.721 12.16 170.302 20.7177 183.301 19.6359C199.371 18.2986 204.253 0.415853 220.345 1.46585C239.601 2.72236 238.678 32.2577 257.941 33.4011C270.005 34.1172 275.159 23.4039 287.244 23.4902C296.883 23.5589 301.427 31.0512 311.019 30.0975C323.413 28.865 337.557 12.478 337.557 12.478" stroke="url(#paint0_linear_1_369)" stroke-width="2.20061"/>
<defs>
<linearGradient id="paint0_linear_1_369" x1="6.93245" y1="34.6084" x2="341.82" y2="3.82035" gradientUnits="userSpaceOnUse">
<stop stop-color="#2FB574"/>
<stop offset="0.530025" stop-color="#163D2A"/>
<stop offset="1" stop-color="#79EFBC"/>
</linearGradient>
</defs>
</svg>
