<svg width="339" height="38" viewBox="0 0 339 38" fill="none" xmlns="http://www.w3.org/2000/svg">
<path d="M0.847427 36.4695C0.847427 36.4695 13.8918 21.68 25.5596 19.4603C34.898 17.6837 40.1801 23.0469 49.6971 22.7524C67.4451 22.2031 74.5364 5.8987 92.225 7.3892C106.624 8.60248 111.13 23.5899 125.558 22.7524C138.396 22.0071 141.482 8.47513 154.293 7.3892C172.428 5.85194 176.393 28.2728 194.522 29.8853C212.545 31.4884 220.167 16.5826 238.199 15.0708C256.577 13.5299 266.738 26.5604 284.75 22.7524C297.692 20.0164 302.162 11.6723 314.635 7.3892C323.547 4.32862 338.197 1.90234 338.197 1.90234" stroke="#79EFBC" stroke-width="2.20061" stroke-dasharray="6.6 6.6"/>
</svg>
