<svg width="113" height="113" viewBox="0 0 113 113" fill="none" xmlns="http://www.w3.org/2000/svg">
<path d="M42.375 89.4583C42.375 92.9896 41.3862 96.3325 39.6442 99.1575C36.3954 104.619 30.4158 108.292 23.5417 108.292C16.6675 108.292 10.6879 104.619 7.43918 99.1575C5.69709 96.3325 4.70834 92.9896 4.70834 89.4583C4.70834 79.0529 13.1363 70.625 23.5417 70.625C33.9471 70.625 42.375 79.0529 42.375 89.4583Z" stroke="#79EFBC" stroke-width="4" stroke-miterlimit="10" stroke-linecap="round" stroke-linejoin="round"/>
<path d="M16.2033 89.4561L20.8646 94.1173L30.8933 84.842" stroke="#79EFBC" stroke-width="4" stroke-linecap="round" stroke-linejoin="round"/>
<path d="M83.5795 33.1937C82.4495 33.0053 81.2725 32.9583 80.0483 32.9583H32.965C31.6466 32.9583 30.3754 33.0525 29.1512 33.2408C29.8104 31.9225 30.752 30.6985 31.882 29.5685L47.1841 14.2192C53.6345 7.81591 64.087 7.81591 70.5375 14.2192L78.777 22.5528C81.7904 25.5191 83.3912 29.2858 83.5795 33.1937Z" stroke="#79EFBC" stroke-width="4" stroke-linecap="round" stroke-linejoin="round"/>
<path d="M103.583 56.4999V80.0416C103.583 94.1666 94.1667 103.583 80.0417 103.583H35.9246C37.3842 102.359 38.6554 100.852 39.6442 99.1574C41.3862 96.3324 42.375 92.9895 42.375 89.4583C42.375 79.0528 33.9471 70.6249 23.5417 70.6249C17.8917 70.6249 12.8537 73.1203 9.41666 77.0282V56.4999C9.41666 43.6933 17.1383 34.7474 29.1446 33.2407C30.3687 33.0524 31.64 32.9583 32.9583 32.9583H80.0417C81.2658 32.9583 82.4429 33.0053 83.5729 33.1936C95.7204 34.6061 103.583 43.5991 103.583 56.4999Z" stroke="#79EFBC" stroke-width="4" stroke-linecap="round" stroke-linejoin="round"/>
<path d="M103.583 58.8542H89.4583C84.2792 58.8542 80.0417 63.0917 80.0417 68.2709C80.0417 73.4501 84.2792 77.6876 89.4583 77.6876H103.583" stroke="#79EFBC" stroke-width="4" stroke-linecap="round" stroke-linejoin="round"/>
</svg>
