<svg width="91" height="91" viewBox="0 0 91 91" fill="none" xmlns="http://www.w3.org/2000/svg">
<g clip-path="url(#clip0_1_238)">
<path d="M66.5058 31.5088C71.6573 31.5088 75.8334 27.3327 75.8334 22.1813C75.8334 17.0298 71.6573 12.8538 66.5058 12.8538C61.3544 12.8538 57.1784 17.0298 57.1784 22.1813C57.1784 27.3327 61.3544 31.5088 66.5058 31.5088Z" stroke="#79EFBC" stroke-width="4" stroke-miterlimit="10" stroke-linecap="round" stroke-linejoin="round"/>
<path d="M24.4942 31.5088C29.6456 31.5088 33.8217 27.3327 33.8217 22.1813C33.8217 17.0298 29.6456 12.8538 24.4942 12.8538C19.3428 12.8538 15.1667 17.0298 15.1667 22.1813C15.1667 27.3327 19.3428 31.5088 24.4942 31.5088Z" stroke="#79EFBC" stroke-width="4" stroke-miterlimit="10" stroke-linecap="round" stroke-linejoin="round"/>
<path d="M66.5058 78.1462C71.6573 78.1462 75.8334 73.9701 75.8334 68.8187C75.8334 63.6673 71.6573 59.4912 66.5058 59.4912C61.3544 59.4912 57.1784 63.6673 57.1784 68.8187C57.1784 73.9701 61.3544 78.1462 66.5058 78.1462Z" stroke="#79EFBC" stroke-width="4" stroke-miterlimit="10" stroke-linecap="round" stroke-linejoin="round"/>
<path d="M24.4942 78.1462C29.6456 78.1462 33.8217 73.9701 33.8217 68.8187C33.8217 63.6673 29.6456 59.4912 24.4942 59.4912C19.3428 59.4912 15.1667 63.6673 15.1667 68.8187C15.1667 73.9701 19.3428 78.1462 24.4942 78.1462Z" stroke="#79EFBC" stroke-width="4" stroke-miterlimit="10" stroke-linecap="round" stroke-linejoin="round"/>
</g>
<defs>
<clipPath id="clip0_1_238">
<rect width="91" height="91" fill="white"/>
</clipPath>
</defs>
</svg>
