<svg width="16" height="17" viewBox="0 0 16 17" fill="none" xmlns="http://www.w3.org/2000/svg">
<path d="M8.66671 15.4085H3.33337C2.00004 15.4085 1.33337 14.7419 1.33337 13.4085L1.33337 8.0752C1.33337 6.74186 2.00004 6.0752 3.33337 6.0752H6.66671V13.4085C6.66671 14.7419 7.33337 15.4085 8.66671 15.4085Z" stroke="#163D2A" stroke-miterlimit="10" stroke-linecap="round" stroke-linejoin="round"/>
<path d="M6.73997 3.40918C6.68664 3.60918 6.66665 3.82918 6.66665 4.07585V6.07585H3.33331V4.74251C3.33331 4.00918 3.93331 3.40918 4.66665 3.40918H6.73997Z" stroke="#163D2A" stroke-miterlimit="10" stroke-linecap="round" stroke-linejoin="round"/>
<path d="M9.33319 6.0752V9.40853" stroke="#163D2A" stroke-miterlimit="10" stroke-linecap="round" stroke-linejoin="round"/>
<path d="M12 6.0752V9.40853" stroke="#163D2A" stroke-miterlimit="10" stroke-linecap="round" stroke-linejoin="round"/>
<path d="M11.3332 12.0757H9.99983C9.63316 12.0757 9.33316 12.3757 9.33316 12.7424V15.409H11.9998V12.7424C11.9998 12.3757 11.6998 12.0757 11.3332 12.0757Z" stroke="#163D2A" stroke-miterlimit="10" stroke-linecap="round" stroke-linejoin="round"/>
<path d="M4 9.40869V12.0754" stroke="#163D2A" stroke-miterlimit="10" stroke-linecap="round" stroke-linejoin="round"/>
<path d="M6.6666 13.409V4.07568C6.6666 2.74235 7.33326 2.07568 8.6666 2.07568H12.6666C13.9999 2.07568 14.6666 2.74235 14.6666 4.07568V13.409C14.6666 14.7424 13.9999 15.409 12.6666 15.409H8.6666C7.33326 15.409 6.6666 14.7424 6.6666 13.409Z" stroke="#163D2A" stroke-miterlimit="10" stroke-linecap="round" stroke-linejoin="round"/>
</svg>
