<svg width="16" height="17" viewBox="0 0 16 17" fill="none" xmlns="http://www.w3.org/2000/svg">
<path d="M6.0195 15.2025L7.57283 13.8959C7.80616 13.6959 8.19283 13.6959 8.42616 13.8959L9.9795 15.2025C10.3395 15.3825 10.7795 15.2025 10.9128 14.8159L11.2062 13.9292C11.2795 13.7159 11.2062 13.4025 11.0462 13.2425L9.53283 11.7225C9.4195 11.6159 9.33283 11.4025 9.33283 11.2492V9.34919C9.33283 9.06919 9.5395 8.93585 9.7995 9.04252L13.0728 10.4559C13.5862 10.6759 14.0062 10.4025 14.0062 9.84252V8.98252C14.0062 8.53585 13.6728 8.02252 13.2595 7.84919L9.53283 6.24252C9.42616 6.19585 9.33283 6.05585 9.33283 5.93585V3.93585C9.33283 3.30919 8.87283 2.56919 8.31283 2.28252C8.11283 2.18252 7.8795 2.18252 7.6795 2.28252C7.1195 2.56919 6.6595 3.31585 6.6595 3.94252V5.94252C6.6595 6.06252 6.56616 6.20252 6.4595 6.24919L2.7395 7.85585C2.32616 8.02252 1.99283 8.53585 1.99283 8.98252V9.84252C1.99283 10.4025 2.41283 10.6759 2.92616 10.4559L6.1995 9.04252C6.45283 8.92919 6.66616 9.06919 6.66616 9.34919V11.2492C6.66616 11.4025 6.5795 11.6159 6.47283 11.7225L4.9595 13.2425C4.7995 13.4025 4.72616 13.7092 4.7995 13.9292L5.09283 14.8159C5.21283 15.2025 5.65283 15.3892 6.0195 15.2025Z" stroke="#163D2A" stroke-linecap="round" stroke-linejoin="round"/>
</svg>
