<svg width="16" height="17" viewBox="0 0 16 17" fill="none" xmlns="http://www.w3.org/2000/svg">
<path d="M10.3396 2.62891L5.65962 2.62891C3.99962 2.62891 3.63296 3.45557 3.41962 4.46891L2.66629 8.07557H13.333L12.5796 4.46891C12.3663 3.45557 11.9996 2.62891 10.3396 2.62891Z" stroke="#163D2A" stroke-linecap="round" stroke-linejoin="round"/>
<path d="M14.6599 13.9557C14.7332 14.7357 14.1066 15.409 13.3066 15.409H12.0532C11.3332 15.409 11.2332 15.1023 11.1066 14.7223L10.9732 14.3223C10.7866 13.7757 10.6666 13.409 9.70658 13.409H6.29325C5.33325 13.409 5.19325 13.8223 5.02658 14.3223L4.89325 14.7223C4.76658 15.1023 4.66658 15.409 3.94658 15.409H2.69325C1.89325 15.409 1.26658 14.7357 1.33992 13.9557L1.71325 9.89568C1.80658 8.89568 1.99992 8.07568 3.74658 8.07568H12.2532C13.9999 8.07568 14.1932 8.89568 14.2866 9.89568L14.6599 13.9557Z" stroke="#163D2A" stroke-linecap="round" stroke-linejoin="round"/>
<path d="M2.66585 6.0752H1.99966" stroke="#163D2A" stroke-linecap="round" stroke-linejoin="round"/>
<path d="M13.9995 6.0752H13.3333" stroke="#163D2A" stroke-linecap="round" stroke-linejoin="round"/>
<path d="M7.99957 2.74219V4.07552" stroke="#163D2A" stroke-linecap="round" stroke-linejoin="round"/>
<path d="M6.99976 4.07568H8.99976" stroke="#163D2A" stroke-linecap="round" stroke-linejoin="round"/>
<path d="M3.99985 10.7422H5.99985" stroke="#163D2A" stroke-linecap="round" stroke-linejoin="round"/>
<path d="M9.99985 10.7422H11.9998" stroke="#163D2A" stroke-linecap="round" stroke-linejoin="round"/>
</svg>
